<svg width="101" height="95" viewBox="0 0 101 95" fill="none" xmlns="http://www.w3.org/2000/svg">
<path d="M50.5 81.2364C72.1307 81.2364 89.6658 80.2735 89.6658 79.0856C89.6658 77.8978 72.1307 76.9348 50.5 76.9348C28.8693 76.9348 11.3342 77.8978 11.3342 79.0856C11.3342 80.2735 28.8693 81.2364 50.5 81.2364Z" fill="#F5F5F5"/>
<path d="M67.6095 30.1396C67.5732 30.7096 67.5024 31.2321 67.4237 31.7736C67.3449 32.3151 67.2378 32.8452 67.1166 33.3772C66.8803 34.4539 66.5389 35.5079 66.0965 36.5255L65.9127 36.9055L65.8683 37.0005L65.8521 37.0499L65.8198 37.1107C65.758 37.23 65.6799 37.3411 65.5875 37.4413C65.4773 37.5579 65.346 37.655 65.1996 37.7282C65.056 37.7991 64.9 37.8454 64.7391 37.865C64.492 37.8899 64.2421 37.8653 64.0058 37.7928C63.6711 37.6853 63.3552 37.5317 63.0685 37.3368C62.8178 37.1705 62.5783 36.9897 62.3515 36.7953C61.5013 36.0538 60.7362 35.2304 60.0688 34.3386L60.7375 33.8047C61.1415 34.1562 61.5455 34.5115 61.9495 34.8478C62.3511 35.184 62.7705 35.5011 63.2059 35.7978C63.4109 35.9357 63.624 36.0626 63.8442 36.1778C64.0218 36.2791 64.2135 36.3565 64.4139 36.4077C64.4825 36.421 64.531 36.4077 64.5088 36.4077C64.4612 36.4127 64.4165 36.432 64.3815 36.4628C64.3694 36.4628 64.3694 36.4628 64.3815 36.4628L64.4462 36.3051L64.5876 35.9593C64.938 35.0073 65.2115 34.0317 65.4057 33.0409C65.5128 32.5431 65.5875 32.0358 65.6683 31.5323C65.7491 31.0288 65.8056 30.5101 65.8521 30.0294L67.6095 30.1396Z" fill="#FFC3BD"/>
<path d="M66.3854 28.0478C65.632 28.2283 65.1047 31.1429 65.1047 31.1429L67.1793 32.4729C67.1793 32.4729 69.169 29.5336 68.5933 28.7546C67.9873 27.9395 67.4843 27.7856 66.3854 28.0478Z" fill="#005CA8"/>
<path d="M66.3854 28.0478C65.632 28.2283 65.1047 31.1429 65.1047 31.1429L67.1793 32.4729C67.1793 32.4729 69.169 29.5336 68.5933 28.7546C67.9873 27.9395 67.4843 27.7856 66.3854 28.0478Z" fill="#005CA8"/>
<path opacity="0.4" d="M66.3854 28.0478C65.632 28.2283 65.1047 31.1429 65.1047 31.1429L67.1793 32.4729C67.1793 32.4729 69.169 29.5336 68.5933 28.7546C67.9873 27.9395 67.4843 27.7856 66.3854 28.0478Z" fill="black"/>
<path opacity="0.3" d="M66.452 28.6995L65.8743 31.635L67.0398 32.3798L66.452 28.6995Z" fill="black"/>
<path d="M60.7719 33.6851L59.7922 32.2183L59.2327 33.8846C59.2327 33.8846 60.0407 34.6826 60.7739 34.4926L60.7719 33.6851Z" fill="#FFC3BD"/>
<path d="M58.3378 31.7338L57.95 33.1512L59.2246 33.8846L59.7841 32.2183L58.3378 31.7338Z" fill="#FFC3BD"/>
<path d="M70.4576 77.0925H68.6315L68.5083 73.1139H70.3364L70.4576 77.0925Z" fill="#FFC3BD"/>
<path d="M86.5754 69.1125L85.1836 70.2259L81.998 67.5507L83.3898 66.4392L86.5754 69.1125Z" fill="#FFC3BD"/>
<path d="M84.8018 70.0928L86.1532 68.6374C86.1763 68.6124 86.2082 68.596 86.2432 68.5915C86.2781 68.587 86.3136 68.5945 86.3431 68.6127L87.7187 69.4506C87.7526 69.4728 87.7812 69.5015 87.8025 69.5348C87.8238 69.5681 87.8374 69.6052 87.8423 69.6438C87.8473 69.6824 87.8435 69.7215 87.8312 69.7586C87.819 69.7957 87.7985 69.83 87.7712 69.8591C87.2904 70.3588 87.0319 70.5773 86.438 71.2157C86.0744 71.609 85.5835 72.2208 85.0785 72.7623C84.5735 73.3038 83.9756 72.8668 84.1352 72.597C84.8442 71.3924 84.6745 70.9706 84.6867 70.3778C84.6885 70.2731 84.7292 70.1723 84.8018 70.0928Z" fill="#263238"/>
<path d="M68.569 76.8949H70.6213C70.6566 76.8946 70.6908 76.9064 70.7176 76.928C70.7444 76.9497 70.7618 76.9798 70.7667 77.0127L71.001 78.5327C71.0076 78.5729 71.0047 78.6139 70.9924 78.6529C70.9802 78.6919 70.9589 78.7278 70.9301 78.7581C70.9014 78.7885 70.8658 78.8124 70.826 78.8283C70.7863 78.8442 70.7432 78.8516 70.7001 78.85C69.985 78.8386 69.6396 78.7987 68.7366 78.7987C68.1811 78.7987 67.0338 78.8538 66.2662 78.8538C65.4986 78.8538 65.4582 78.1394 65.7794 78.0767C67.2095 77.786 67.7731 77.387 68.2559 77.0051C68.3427 76.934 68.4539 76.8949 68.569 76.8949Z" fill="#263238"/>
<path opacity="0.2" d="M68.5105 73.1157L68.5731 75.1658H70.3992L70.3366 73.1157H68.5105Z" fill="black"/>
<path opacity="0.2" d="M83.3918 66.4392L81.998 67.5507L83.6423 68.9301L85.0341 67.8167L83.3918 66.4392Z" fill="black"/>
<path d="M66.3854 28.0477C66.3854 28.0477 65.5147 28.3365 67.258 38.4179H74.6754C74.5522 35.5774 74.5482 33.8256 75.9905 27.9983C74.9521 27.7969 73.8996 27.6661 72.8413 27.6069C71.7196 27.5317 70.5936 27.5317 69.4719 27.6069C68.0256 27.7399 66.3854 28.0477 66.3854 28.0477Z" fill="#005CA8"/>
<path opacity="0.4" d="M66.3854 28.0477C66.3854 28.0477 65.5147 28.3365 67.258 38.4179H74.6754C74.5522 35.5774 74.5482 33.8256 75.9905 27.9983C74.9521 27.7969 73.8996 27.6661 72.8413 27.6069C71.7196 27.5317 70.5936 27.5317 69.4719 27.6069C68.0256 27.7399 66.3854 28.0477 66.3854 28.0477Z" fill="black"/>
<path d="M72.8413 27.6069C71.7196 27.5317 70.5937 27.5317 69.472 27.6069C69.2902 27.6221 69.1043 27.6411 68.9205 27.662C68.8445 27.77 68.7958 27.893 68.7783 28.0215C68.7608 28.1499 68.7749 28.2805 68.8195 28.403C69.0559 28.9559 69.9083 29.0205 70.5305 29.0205C72.8272 29.0205 73.215 27.7589 73.2312 27.7057L73.2534 27.6297C73.1241 27.6221 72.9787 27.6126 72.8413 27.6069Z" fill="white"/>
<path d="M72.518 24.0406C72.3039 25.059 72.0938 26.9268 72.8513 27.607C72.8513 27.607 72.5544 28.6424 70.5404 28.6424C68.3184 28.6424 69.482 27.6088 69.482 27.6088C70.694 27.3371 70.6596 26.4935 70.4495 25.7088L72.518 24.0406Z" fill="#FFC3BD"/>
<path opacity="0.2" d="M71.6636 24.717L70.4395 25.6993C70.4922 25.8861 70.5273 26.0768 70.5445 26.2693C71.0051 26.2066 71.6393 25.7297 71.6898 25.2756C71.7182 25.0895 71.7093 24.9001 71.6636 24.717Z" fill="black"/>
<path d="M71.2476 18.4964C71.0598 17.8979 70.9022 16.9555 72.0334 16.5299C71.591 16.0207 71.484 15.0631 72.0334 14.495C72.5829 13.9269 73.407 14.1359 73.407 14.1359C73.407 14.1359 73.6494 12.747 75.4452 12.9959C77.241 13.2448 76.4411 14.3563 76.4411 14.3563C76.4411 14.3563 78.8913 13.9003 79.0549 16.0663C79.2186 18.2323 77.8126 17.9663 77.8126 17.9663C77.8126 17.9663 78.9055 18.8289 78.2995 19.777C77.6935 20.7251 76.2936 20.3983 76.2936 20.3983C76.2936 20.3983 75.6351 22.0741 74.0837 21.1203C72.5324 20.1665 71.2476 18.4964 71.2476 18.4964Z" fill="#263238"/>
<path d="M67.6096 19.76C67.0036 20.4972 67.2702 21.3313 67.8116 21.66C69.1145 22.4428 70.9991 19.1596 70.5082 18.7663C70.0174 18.373 68.2156 19.0209 67.6096 19.76Z" fill="#263238"/>
<path d="M73.0817 18.0043C72.2252 17.6794 71.3566 18.0195 71.0859 18.5097C70.4254 19.7048 73.4251 21.8575 74.2937 20.3641C74.8088 19.4768 73.9644 18.3387 73.0817 18.0043Z" fill="#005CA8"/>
<path d="M72.7201 21.6599C72.7827 23.3699 72.8474 24.0843 72.0252 25.0362C70.791 26.4669 68.5508 26.1667 67.9489 24.5137C67.4075 23.026 67.3974 20.4895 69.0922 19.6573C69.4648 19.472 69.8815 19.3793 70.3029 19.388C70.7242 19.3968 71.1362 19.5067 71.4997 19.7073C71.8632 19.908 72.1661 20.1927 72.3797 20.5344C72.5933 20.8762 72.7105 21.2636 72.7201 21.6599Z" fill="#FFC3BD"/>
<path d="M72.4475 22.5549C71.6395 22.2718 71.4375 21.3845 71.5667 21.0349C71.1627 21.0197 70.28 20.8829 69.9507 20.4117C69.3205 20.7917 67.9893 21.1717 67.8459 20.539C67.7025 19.9063 69.7104 18.2799 71.2294 18.1545C73.0353 18.0063 74.8169 19.6745 74.3584 21.2724C73.8998 22.8703 72.4475 22.5549 72.4475 22.5549Z" fill="#263238"/>
<path d="M67.2661 38.418C67.2661 38.418 65.8258 51.6515 65.945 56.8917C66.0702 62.3409 68.1933 74.7688 68.1933 74.7688H70.6617C70.6617 74.7688 70.2718 62.6582 70.49 57.3078C70.7284 51.4729 72.6979 38.418 72.6979 38.418H67.2661Z" fill="#263238"/>
<path d="M70.8679 74.8524H67.9712L67.7571 73.9841L71.0032 73.8777L70.8679 74.8524Z" fill="#005CA8"/>
<path opacity="0.2" d="M70.4577 41.7106C68.6397 45.1572 70.092 51.4462 70.7364 53.787C71.0657 50.272 71.6232 45.9761 72.0575 42.8221C71.7828 41.0399 71.3061 40.1203 70.4577 41.7106Z" fill="black"/>
<path d="M69.2175 38.418C69.2175 38.418 70.8982 52.1759 72.1667 56.5934C73.6737 61.8374 83.0323 68.8959 83.0323 68.8959L84.9311 67.3759C84.9311 67.3759 78.1479 59.7075 76.9945 56.9449C74.5362 51.0549 76.641 42.2617 74.6756 38.4142L69.2175 38.418Z" fill="#263238"/>
<path d="M85.2341 67.298L82.8788 69.179L81.998 68.6831L84.6624 66.3518L85.2341 67.298Z" fill="#005CA8"/>
<path d="M70.0315 22.3744C70.0456 22.5131 69.979 22.6309 69.884 22.6404C69.7891 22.6499 69.6982 22.5435 69.682 22.4067C69.6659 22.2699 69.7346 22.1483 69.8315 22.1407C69.9285 22.1331 70.0174 22.23 70.0315 22.3744Z" fill="#263238"/>
<path d="M68.3751 22.5245C68.3892 22.6613 68.3226 22.781 68.2256 22.7905C68.1287 22.8 68.0418 22.6936 68.0236 22.5549C68.0054 22.4162 68.0761 22.2984 68.1711 22.2908C68.266 22.2832 68.361 22.3858 68.3751 22.5245Z" fill="#263238"/>
<path d="M68.2175 22.2946L67.856 22.23C67.856 22.23 68.0741 22.4732 68.2175 22.2946Z" fill="#263238"/>
<path d="M68.8356 22.722C68.7373 23.0483 68.5918 23.3602 68.4033 23.6492C68.4834 23.6926 68.5726 23.7191 68.6646 23.727C68.7567 23.7349 68.8495 23.7239 68.9366 23.6948L68.8356 22.722Z" fill="#ED847E"/>
<path d="M69.7508 24.149C69.6708 24.1696 69.589 24.1836 69.5064 24.1908C69.5008 24.1913 69.4952 24.1908 69.4898 24.1893C69.4845 24.1877 69.4795 24.1852 69.4752 24.1819C69.4709 24.1785 69.4673 24.1744 69.4647 24.1697C69.4621 24.165 69.4604 24.1599 69.4599 24.1547C69.4588 24.1439 69.4622 24.1331 69.4693 24.1246C69.4765 24.1161 69.4869 24.1105 69.4983 24.1091C69.6812 24.0964 69.8583 24.0436 70.0155 23.9548C70.1726 23.8661 70.3055 23.7438 70.4033 23.598C70.4056 23.593 70.409 23.5885 70.4134 23.5848C70.4177 23.5811 70.4228 23.5784 70.4284 23.5768C70.434 23.5752 70.4398 23.5747 70.4456 23.5754C70.4514 23.5761 70.4569 23.578 70.4619 23.5809C70.4718 23.5861 70.4793 23.5948 70.4827 23.605C70.4861 23.6153 70.4851 23.6264 70.48 23.636C70.3171 23.8897 70.0555 24.0737 69.7508 24.149Z" fill="#263238"/>
<path d="M73.1443 22.8399C73.1 23.1668 72.9199 23.464 72.6433 23.6664C72.2736 23.9324 71.9181 23.6664 71.8757 23.2503C71.8393 22.8703 71.9848 22.3003 72.4251 22.1901C72.5212 22.1716 72.6207 22.1754 72.7148 22.2011C72.809 22.2268 72.8952 22.2736 72.9659 22.3375C73.0366 22.4014 73.0898 22.4805 73.1209 22.568C73.1519 22.6555 73.16 22.7488 73.1443 22.8399Z" fill="#FFC3BD"/>
<path d="M70.2093 21.3977C70.1981 21.4004 70.1864 21.4009 70.175 21.3993C70.1635 21.3977 70.1525 21.3939 70.1427 21.3882C70.0511 21.3333 69.947 21.2994 69.8389 21.2895C69.7307 21.2796 69.6216 21.2939 69.5205 21.3312C69.4995 21.34 69.4757 21.341 69.454 21.3339C69.4322 21.3269 69.4141 21.3123 69.4033 21.2932C69.3936 21.2738 69.3924 21.2516 69.3999 21.2313C69.4075 21.211 69.4232 21.1944 69.4437 21.1849C69.5709 21.1355 69.7089 21.1156 69.846 21.1268C69.9831 21.1381 70.1153 21.1802 70.2315 21.2495C70.2411 21.255 70.2495 21.2622 70.2561 21.2707C70.2627 21.2792 70.2675 21.2888 70.2701 21.2991C70.2727 21.3093 70.2732 21.32 70.2714 21.3304C70.2696 21.3408 70.2657 21.3508 70.2598 21.3597C70.2487 21.3779 70.2306 21.3915 70.2093 21.3977Z" fill="#263238"/>
<path d="M67.563 21.8709C67.5422 21.8783 67.5192 21.8783 67.4984 21.8709C67.4788 21.8601 67.4643 21.8427 67.4579 21.8222C67.4515 21.8017 67.4537 21.7797 67.4641 21.7607C67.5257 21.645 67.6161 21.5451 67.7276 21.4693C67.8391 21.3936 67.9683 21.3443 68.1044 21.3256C68.1157 21.3245 68.1271 21.3256 68.138 21.3288C68.1488 21.332 68.1589 21.3372 68.1675 21.3441C68.1762 21.351 68.1833 21.3595 68.1884 21.3691C68.1935 21.3786 68.1966 21.389 68.1973 21.3997C68.199 21.4211 68.1917 21.4422 68.177 21.4585C68.1622 21.4749 68.1412 21.4851 68.1185 21.4871C68.0114 21.504 67.91 21.5445 67.8226 21.6053C67.7352 21.666 67.6643 21.7453 67.6156 21.8367C67.6098 21.8455 67.6022 21.8531 67.5932 21.859C67.5841 21.8649 67.5739 21.8689 67.563 21.8709Z" fill="#263238"/>
<path d="M76.748 29.8508C77.1599 30.7986 77.5153 31.7672 77.8125 32.7521C78.1276 33.7457 78.352 34.7627 78.4831 35.7921C78.5175 36.0543 78.5276 36.3298 78.5397 36.6015V36.7554C78.5397 36.8105 78.5296 36.8675 78.5215 36.9169C78.5047 37.0119 78.4818 37.1058 78.4528 37.1981C78.4002 37.3561 78.3326 37.5094 78.2508 37.656C77.9708 38.1431 77.6274 38.5956 77.2287 39.0031C76.4914 39.765 75.6799 40.4603 74.8047 41.0798L74.2209 40.4699C74.8936 39.7308 75.5723 38.9727 76.148 38.1899C76.4262 37.8347 76.6632 37.4525 76.855 37.0499C76.8879 36.972 76.9149 36.892 76.9358 36.8105C76.9413 36.7829 76.9447 36.755 76.9459 36.7269C76.947 36.7187 76.947 36.7104 76.9459 36.7022V36.6756C76.9197 36.4514 76.9015 36.2272 76.8571 35.9973C76.6833 35.0587 76.441 34.1325 76.1319 33.2252C75.8228 32.3056 75.4774 31.3727 75.1219 30.4835L76.748 29.8508Z" fill="#FFC3BD"/>
<path d="M75.9905 27.9983C76.7339 28.2111 77.6267 30.6184 77.6267 30.6184L74.7401 32.5564C74.7401 32.5564 73.6877 30.5481 74.0008 29.6437C74.3361 28.7032 75.1441 27.7551 75.9905 27.9983Z" fill="#005CA8"/>
<path opacity="0.4" d="M75.9905 27.9983C76.7339 28.2111 77.6267 30.6184 77.6267 30.6184L74.7401 32.5564C74.7401 32.5564 73.6877 30.5481 74.0008 29.6437C74.3361 28.7032 75.1441 27.7551 75.9905 27.9983Z" fill="black"/>
<path d="M84.3027 70.9213C84.2653 70.9204 84.2287 70.9115 84.1954 70.8954C84.1622 70.8793 84.1333 70.8563 84.1108 70.8282C84.0925 70.8104 84.0795 70.7884 84.0731 70.7644C84.0667 70.7404 84.0672 70.7152 84.0744 70.6914C84.1431 70.4824 84.7774 70.3114 84.8501 70.2924C84.858 70.2897 84.8667 70.2896 84.8747 70.292C84.8828 70.2944 84.8897 70.2992 84.8946 70.3057C84.8991 70.3122 84.9015 70.3198 84.9015 70.3276C84.9015 70.3353 84.8991 70.3429 84.8946 70.3494C84.7814 70.5527 84.5572 70.8947 84.3269 70.9194L84.3027 70.9213ZM84.7713 70.3988C84.5209 70.4748 84.1936 70.6059 84.1653 70.7161C84.1623 70.7266 84.1624 70.7376 84.1656 70.748C84.1688 70.7583 84.175 70.7677 84.1835 70.775C84.1997 70.7968 84.2216 70.8142 84.2471 70.8255C84.2726 70.8369 84.3008 70.8417 84.329 70.8396C84.4461 70.8263 84.6097 70.6629 84.7713 70.3988Z" fill="#005CA8"/>
<path d="M84.5714 70.4064C84.3824 70.4245 84.1932 70.3742 84.0422 70.2658C84.021 70.2406 84.0095 70.2095 84.0095 70.1774C84.0095 70.1454 84.021 70.1142 84.0422 70.0891C84.0601 70.0627 84.0841 70.0405 84.1125 70.0241C84.1408 70.0076 84.1727 69.9974 84.2058 69.9941C84.4684 69.9637 84.8663 70.2867 84.8825 70.3C84.8884 70.3044 84.8928 70.3104 84.8953 70.3171C84.8978 70.3238 84.8983 70.331 84.8966 70.338C84.8958 70.3454 84.8927 70.3524 84.8876 70.3581C84.8826 70.3639 84.8759 70.3681 84.8683 70.3703C84.7718 70.3961 84.6717 70.4083 84.5714 70.4064ZM84.2502 70.0739H84.2219C84.2012 70.0761 84.1813 70.0825 84.1635 70.0927C84.1457 70.1028 84.1305 70.1165 84.1189 70.1328C84.0886 70.1765 84.0987 70.1993 84.1189 70.2145C84.1977 70.3114 84.5573 70.3475 84.7754 70.3095C84.6261 70.1879 84.4446 70.1065 84.2502 70.0739Z" fill="#005CA8"/>
<path d="M67.8822 77.1951C67.7261 77.2084 67.5699 77.1709 67.4398 77.0887C67.412 77.0649 67.3905 77.0353 67.3768 77.0024C67.3631 76.9694 67.3578 76.9339 67.361 76.8987C67.3627 76.8762 67.3704 76.8544 67.3835 76.8354C67.3966 76.8165 67.4146 76.801 67.4358 76.7904C67.66 76.6745 68.3872 77.0241 68.47 77.0659C68.4777 77.07 68.484 77.0762 68.4879 77.0836C68.4919 77.091 68.4934 77.0994 68.4922 77.1077C68.4911 77.1161 68.4872 77.1239 68.481 77.1301C68.4748 77.1362 68.4667 77.1404 68.4579 77.1419C68.2681 77.1761 68.0754 77.1939 67.8822 77.1951ZM67.557 76.8398C67.5291 76.8381 67.5012 76.8434 67.4762 76.855C67.4675 76.859 67.4603 76.8652 67.4553 76.873C67.4502 76.8807 67.4477 76.8896 67.4479 76.8987C67.4446 76.9225 67.4474 76.9466 67.4562 76.9691C67.465 76.9917 67.4795 77.0118 67.4984 77.0279C67.6095 77.1229 67.9024 77.1381 68.3064 77.0754C68.0727 76.9572 67.8193 76.8775 67.557 76.8398Z" fill="#005CA8"/>
<path d="M68.4499 77.1399H68.4317C68.2135 77.0468 67.7833 76.6763 67.8257 76.4825C67.8257 76.4369 67.8681 76.378 67.9873 76.3666C68.0303 76.3624 68.0738 76.3664 68.1151 76.3785C68.1565 76.3906 68.1948 76.4105 68.2277 76.4369C68.4559 76.6174 68.4983 77.0791 68.5004 77.1C68.501 77.107 68.4996 77.114 68.4964 77.1204C68.4932 77.1267 68.4883 77.1321 68.4822 77.1361C68.4774 77.1389 68.4721 77.1407 68.4665 77.1414C68.4609 77.1421 68.4552 77.1415 68.4499 77.1399ZM68.0135 76.4426H67.9893C67.9085 76.4426 67.9045 76.4806 67.9024 76.4901C67.8822 76.606 68.1751 76.8986 68.3973 77.024C68.3792 76.8288 68.2974 76.6437 68.163 76.4939C68.1221 76.4586 68.069 76.4383 68.0135 76.4369V76.4426Z" fill="#005CA8"/>
<path d="M74.7867 38L74.9765 38.6251C75.0028 38.6726 74.9422 38.722 74.8553 38.722H67.2218C67.1551 38.722 67.0985 38.6916 67.0945 38.6517L67.0278 38.0285C67.0278 37.9848 67.0804 37.9487 67.1551 37.9487H74.6675C74.6904 37.9469 74.7133 37.9506 74.7342 37.9596C74.7551 37.9686 74.7732 37.9825 74.7867 38Z" fill="#005CA8"/>
<path opacity="0.3" d="M74.7867 38L74.9765 38.6251C75.0028 38.6726 74.9422 38.722 74.8553 38.722H67.2218C67.1551 38.722 67.0985 38.6916 67.0945 38.6517L67.0278 38.0285C67.0278 37.9848 67.0804 37.9487 67.1551 37.9487H74.6675C74.6904 37.9469 74.7133 37.9506 74.7342 37.9596C74.7551 37.9686 74.7732 37.9825 74.7867 38Z" fill="white"/>
<path d="M73.7785 38.798H73.9805C74.0189 38.798 74.0492 38.779 74.0472 38.7543L73.9522 37.943C73.9522 37.9202 73.9159 37.8993 73.8755 37.8993H73.6735C73.6331 37.8993 73.6028 37.9202 73.6068 37.943L73.6997 38.7543C73.7038 38.779 73.73 38.798 73.7785 38.798Z" fill="#263238"/>
<path d="M67.7873 38.798H67.9893C68.0297 38.798 68.06 38.779 68.058 38.7543L67.963 37.943C67.963 37.9202 67.9246 37.8993 67.8863 37.8993H67.6843C67.6439 37.8993 67.6136 37.9202 67.6156 37.943L67.7105 38.7543C67.7125 38.779 67.7469 38.798 67.7873 38.798Z" fill="#263238"/>
<path d="M70.7828 38.798H70.9848C71.0252 38.798 71.0555 38.779 71.0535 38.7543L70.9586 37.943C70.9586 37.9202 70.9222 37.8993 70.8818 37.8993H70.6798C70.6394 37.8993 70.6091 37.9202 70.6132 37.943L70.7 38.76C70.7 38.779 70.7424 38.798 70.7828 38.798Z" fill="#263238"/>
<path d="M69.876 22.1444L69.5144 22.0798C69.5144 22.0798 69.7204 22.323 69.876 22.1444Z" fill="#263238"/>
<path opacity="0.2" d="M63.1898 46.3391C59.7675 47.5896 56.0278 47.8576 52.4436 47.1091C48.8594 46.3605 45.5916 44.6291 43.0536 42.1338C40.5155 39.6384 38.8211 36.4912 38.1846 33.0901C37.5482 29.689 37.9982 26.1868 39.4779 23.0262C40.9575 19.8657 43.4003 17.1888 46.4974 15.3341C49.5944 13.4794 53.2066 12.5302 56.8772 12.6064C60.5478 12.6827 64.112 13.781 67.119 15.7625C70.126 17.744 72.4407 20.5197 73.7706 23.7386C74.6539 25.876 75.081 28.1561 75.0273 30.4488C74.9736 32.7414 74.4402 35.0017 73.4577 37.1004C72.4751 39.1992 71.0626 41.0953 69.3008 42.6805C67.539 44.2657 65.4625 45.5089 63.1898 46.3391Z" fill="#005CA8"/>
<path opacity="0.1" d="M59.8305 12.8914L45.2703 43.9944C45.0461 43.8348 44.8239 43.6695 44.6057 43.5023C43.1985 42.4073 41.9729 41.1207 40.9697 39.6852L53.5462 12.8192C55.6298 12.5036 57.7557 12.528 59.8305 12.8914Z" fill="white"/>
<path opacity="0.1" d="M70.181 18.2875L56.4915 47.5303C53.648 47.5332 50.8419 46.9208 48.2903 45.7406L63.2383 13.8073C65.8865 14.7814 68.2617 16.3141 70.181 18.2875Z" fill="white"/>
<path d="M41.1839 18.3008C43.6575 15.4578 46.9718 13.3686 50.7078 12.2974C54.4437 11.2262 58.4335 11.2211 62.1725 12.2827C65.9116 13.3443 69.232 15.4249 71.7139 18.2615C74.1957 21.0981 75.7276 24.5632 76.1157 28.2187C76.5039 31.8741 75.7309 35.5558 73.8945 38.798C72.0581 42.0403 69.2408 44.6975 65.7988 46.4337C62.3569 48.1699 58.4448 48.9071 54.5575 48.5521C50.6701 48.197 46.9819 46.7657 43.9594 44.4391C39.9067 41.3188 37.3376 36.8123 36.8171 31.9105C36.2966 27.0088 37.8673 22.1133 41.1839 18.3008ZM70.4981 40.8652C72.7687 38.2545 74.1653 35.0692 74.5113 31.712C74.8573 28.3548 74.1371 24.9765 72.4419 22.0043C70.7467 19.0321 68.1526 16.5994 64.9875 15.0138C61.8225 13.4283 58.2287 12.7612 54.6605 13.0967C51.0923 13.4323 47.7101 14.7555 44.9414 16.8991C42.1728 19.0426 40.142 21.9103 39.106 25.1394C38.07 28.3685 38.0753 31.814 39.1211 35.0403C40.1669 38.2666 42.2063 41.1288 44.9815 43.2649C46.8244 44.6834 48.9463 45.7466 51.226 46.3937C53.5058 47.0408 55.8987 47.2591 58.2682 47.0363C60.6377 46.8135 62.9373 46.1538 65.0358 45.0949C67.1342 44.0361 68.9903 42.5988 70.4981 40.8652Z" fill="#005CA8"/>
<path d="M72.2413 40.8006C74.1866 41.8931 76.0369 43.0939 77.8549 44.3327C79.6729 45.5715 81.4444 46.8616 83.1877 48.1859C84.9309 49.5102 86.6419 50.8725 88.2922 52.3032C89.1191 53.0176 89.9271 53.751 90.7162 54.5034C91.5081 55.2634 92.2858 56.0234 93.019 56.848C93.1884 57.0389 93.2818 57.2794 93.2832 57.528C93.2845 57.7767 93.1937 58.0181 93.0263 58.2106C92.8589 58.4031 92.6255 58.5347 92.3661 58.5829C92.1067 58.631 91.8376 58.5926 91.605 58.4744C90.595 57.9614 89.6497 57.3952 88.7063 56.8157C87.763 56.2362 86.8419 55.632 85.9329 55.0107C84.1149 53.7719 82.3554 52.4666 80.6324 51.1195C78.9093 49.7724 77.2125 48.3949 75.5622 46.9623C73.9118 45.5297 72.2938 44.0629 70.7707 42.4859C70.5806 42.2908 70.4715 42.0378 70.4636 41.7733C70.4557 41.5087 70.5494 41.2503 70.7276 41.0455C70.9059 40.8407 71.1566 40.7032 71.4339 40.6582C71.7112 40.6132 71.9964 40.6638 72.2373 40.8006H72.2413Z" fill="#005CA8"/>
<path d="M74.4149 40.2799L72.4636 40.5592L73.8594 41.7106C73.8594 41.7106 74.9624 41.3306 75.0714 40.6276L74.4149 40.2799Z" fill="#FFC3BD"/>
<path d="M71.4092 41.6138L72.6353 42.5182L74.1321 41.5986L72.4636 40.5631L71.4092 41.6138Z" fill="#FFC3BD"/>
<path d="M62.1837 43.6145C62.3619 43.1568 62.6833 42.7607 63.1055 42.4782C63.5278 42.1957 64.031 42.04 64.5491 42.0318H80.7192C80.9986 42.0219 81.2769 42.0699 81.5345 42.1723C81.792 42.2747 82.0226 42.429 82.2098 42.6243C82.3971 42.8196 82.5364 43.0512 82.6181 43.3027C82.6998 43.5543 82.7219 43.8196 82.6827 44.08L78.5053 77.0469C78.4167 77.6081 78.1186 78.1214 77.6645 78.4949C77.2105 78.8684 76.6299 79.0778 76.0268 79.0856H24.7188C24.4403 79.0956 24.1629 79.048 23.9061 78.9463C23.6492 78.8445 23.4192 78.6911 23.2322 78.4968C23.0453 78.3024 22.9058 78.0719 22.8238 77.8214C22.7417 77.5709 22.7191 77.3065 22.7573 77.0469L26.26 49.3487C26.3487 48.7874 26.6467 48.2742 27.1008 47.9007C27.5549 47.5272 28.1354 47.3178 28.7386 47.31H56.659C57.8689 47.2906 59.0441 46.9272 60.0302 46.2676C61.0163 45.6079 61.7671 44.683 62.1837 43.6145Z" fill="#005CA8"/>
<path d="M23.6804 77.5675H77.2932L80.3475 43.6373H26.7367L23.6804 77.5675Z" fill="#F0F0F0"/>
<path d="M23.6804 77.5675H77.2932L79.5031 43.6373H26.7367L23.6804 77.5675Z" fill="#E0E0E0"/>
<path d="M23.6804 77.5674H77.2932L79.1355 42.5599H25.5247L23.6804 77.5674Z" fill="#F0F0F0"/>
<path d="M23.6804 77.5674H77.2932L78.0225 42.5599H25.5247L23.6804 77.5674Z" fill="#E0E0E0"/>
<path d="M23.6804 77.5675H77.2932L77.6124 41.61H24.0016L23.6804 77.5675Z" fill="#F0F0F0"/>
<path d="M23.6805 77.5675H77.2933L76.1924 42.2902H22.927L23.6805 77.5675Z" fill="#E0E0E0"/>
<path d="M23.6806 77.5674H77.2934L75.7016 42.5599H22.0908L23.6806 77.5674Z" fill="#F0F0F0"/>
<path d="M23.6805 77.5674H77.2934L74.7583 43.0881H21.1475L23.6805 77.5674Z" fill="#E0E0E0"/>
<path d="M23.6805 77.5675H77.2933L74.3542 43.3827H20.7434L23.6805 77.5675Z" fill="#F0F0F0"/>
<path d="M50.5283 45.7558C50.5313 45.5353 50.5814 45.3177 50.6757 45.1158C50.77 44.914 50.9064 44.732 51.077 44.5808C51.2476 44.4296 51.4487 44.3122 51.6685 44.2356C51.8883 44.1591 52.1223 44.1249 52.3564 44.1351H68.5265C69.1526 44.1577 69.7529 44.3752 70.2333 44.7535C70.7137 45.1317 71.047 45.6494 71.1808 46.2251L77.5701 77.0051C77.8084 78.1584 77.0085 79.0951 75.7824 79.0951H24.4744C23.2462 79.0951 22.0504 78.1584 21.8181 77.0051L16.5479 51.6306C16.3095 50.4773 17.1094 49.5406 18.3356 49.5406H46.258C48.682 49.5406 50.4455 47.9712 50.5283 45.7558Z" fill="#005CA8"/>
<path opacity="0.2" d="M50.5283 45.7558C50.5313 45.5353 50.5814 45.3177 50.6757 45.1158C50.77 44.914 50.9064 44.732 51.077 44.5808C51.2476 44.4296 51.4487 44.3122 51.6685 44.2356C51.8883 44.1591 52.1223 44.1249 52.3564 44.1351H68.5265C69.1526 44.1577 69.7529 44.3752 70.2333 44.7535C70.7137 45.1317 71.047 45.6494 71.1808 46.2251L77.5701 77.0051C77.8084 78.1584 77.0085 79.0951 75.7824 79.0951H24.4744C23.2462 79.0951 22.0504 78.1584 21.8181 77.0051L16.5479 51.6306C16.3095 50.4773 17.1094 49.5406 18.3356 49.5406H46.258C48.682 49.5406 50.4455 47.9712 50.5283 45.7558Z" fill="black"/>
</svg>
