<?xml version="1.0" standalone="no"?>
<!DOCTYPE svg PUBLIC "-//W3C//DTD SVG 20010904//EN"
 "http://www.w3.org/TR/2001/REC-SVG-20010904/DTD/svg10.dtd">
<svg version="1.0" xmlns="http://www.w3.org/2000/svg"
 width="1480.000000pt" height="833.000000pt" viewBox="0 0 1480.000000 833.000000"
 preserveAspectRatio="xMidYMid meet">

<g transform="translate(0.000000,833.000000) scale(0.100000,-0.100000)"
fill="#000000" stroke="none">
<path d="M4886 8314 c-7 -18 15 -43 58 -64 22 -11 30 -22 29 -37 -2 -12 11
-34 32 -54 25 -25 31 -37 23 -46 -16 -20 -29 -16 -93 27 -57 37 -115 56 -87
28 7 -7 12 -20 12 -29 0 -16 85 -92 113 -102 19 -6 -11 -37 -37 -37 -36 0 -98
26 -109 46 -16 29 -51 54 -58 42 -4 -6 -11 -8 -17 -4 -6 3 -21 2 -34 -3 -19
-7 -27 -4 -45 18 l-21 26 -26 -24 c-15 -14 -31 -42 -36 -63 -11 -38 -27 -47
-46 -28 -15 15 -32 -8 -36 -49 -3 -39 -23 -52 -31 -21 -3 12 -15 24 -26 27
-11 3 -22 11 -25 19 -11 29 -33 14 -39 -27 -4 -31 0 -53 16 -85 17 -35 19 -48
10 -66 -10 -20 -49 -121 -66 -171 -9 -24 -36 -33 -59 -18 -21 13 -38 7 -38
-13 0 -20 31 -86 58 -124 13 -17 20 -32 15 -32 -4 0 0 -5 10 -11 9 -5 21 -8
26 -5 5 3 14 -1 21 -9 7 -8 20 -15 30 -15 21 0 30 -9 24 -25 -4 -10 -14 -9
-46 2 -37 13 -43 12 -50 -1 -16 -29 -48 -19 -64 19 -11 27 -20 35 -39 35 -14
0 -25 3 -25 8 0 4 -13 14 -29 23 -26 15 -29 15 -40 -2 -16 -27 -31 -23 -31 6
0 35 -37 105 -55 105 -8 0 -25 11 -37 25 -24 28 -39 31 -68 13 -15 -10 -22 -9
-39 6 -35 32 -63 17 -98 -53 -31 -60 -32 -64 -17 -93 8 -16 13 -36 10 -44 -5
-13 -9 -12 -31 2 -17 11 -30 13 -36 7 -13 -13 21 -90 46 -101 18 -9 18 -11 3
-17 -11 -4 -29 2 -51 19 -42 32 -93 35 -102 7 -8 -26 -30 -17 -45 19 -31 76
-115 21 -110 -72 3 -50 1 -55 -15 -34 -8 11 -15 30 -15 42 0 13 -8 30 -17 40
-10 10 -18 22 -18 28 0 17 -31 18 -45 2 -10 -13 -8 -17 14 -26 14 -5 26 -14
26 -20 0 -15 -16 -12 -30 5 -12 14 -15 14 -30 0 -16 -14 -18 -14 -24 1 -4 9 1
28 9 41 17 25 13 43 -11 43 -20 0 -17 27 6 47 23 20 26 41 6 49 -8 3 -16 18
-19 33 -4 18 -18 34 -42 47 -20 10 -38 29 -42 42 -6 25 -38 30 -47 6 -3 -9 -6
-43 -6 -76 0 -45 -5 -66 -20 -85 -11 -14 -20 -33 -20 -42 0 -9 -9 -22 -21 -29
-18 -12 -24 -11 -45 9 -18 16 -30 20 -54 16 -28 -6 -30 -5 -30 24 0 32 -46 89
-72 89 -32 -1 -90 -73 -82 -104 4 -16 -3 -30 -23 -50 -15 -15 -35 -49 -44 -74
-11 -30 -21 -46 -30 -43 -8 2 -22 3 -32 3 -10 0 -22 9 -27 23 -11 29 -42 40
-70 23 -18 -11 -23 -10 -32 7 -22 40 -79 85 -107 85 -15 0 -31 -4 -37 -9 -5
-4 -31 -11 -57 -15 -40 -5 -49 -3 -54 12 -4 9 -21 32 -39 51 -32 34 -33 34
-59 17 -22 -15 -26 -23 -21 -46 7 -38 -17 -59 -46 -41 -25 15 -30 11 -37 -35
-7 -44 -37 -68 -52 -42 -7 13 -17 16 -38 12 -33 -7 -54 18 -45 53 3 11 -1 25
-10 32 -28 23 -80 -10 -95 -59 -12 -42 -20 -47 -51 -30 -16 8 -22 6 -36 -15
-9 -14 -26 -25 -39 -25 -30 0 -55 -28 -35 -40 7 -4 14 -26 15 -47 1 -31 -5
-45 -34 -75 -41 -44 -74 -49 -101 -16 -15 19 -20 20 -34 9 -9 -7 -16 -22 -16
-32 0 -10 -11 -26 -26 -35 -30 -20 -29 -57 1 -63 23 -4 35 -19 35 -44 0 -29
-43 -18 -50 13 -10 41 -35 31 -34 -12 1 -41 -1 -43 -41 -28 -34 13 -32 53 3
58 17 3 22 9 20 25 -3 21 -7 22 -51 10 -13 -4 -19 2 -23 26 -6 30 -9 32 -46
30 -39 -3 -57 9 -58 39 0 15 52 16 67 1 18 -18 33 0 33 41 0 41 8 53 27 42 18
-11 34 -60 23 -67 -12 -7 -13 -45 -2 -45 17 0 47 31 35 36 -7 3 -10 18 -6 39
5 30 2 36 -27 53 -20 13 -43 42 -61 78 -36 70 -56 94 -81 94 -14 0 -18 -8 -18
-35 0 -40 -5 -42 -33 -18 -18 17 -19 17 -33 -2 -18 -25 -18 -41 1 -49 21 -8
18 -126 -3 -134 -22 -8 -31 18 -30 80 1 31 -3 62 -9 70 -6 7 -13 24 -15 38 -2
17 -10 26 -25 28 -18 3 -24 -5 -36 -49 -13 -42 -13 -56 -3 -73 7 -12 11 -41
10 -66 -1 -41 -4 -45 -28 -48 -18 -2 -26 -9 -26 -23 0 -12 -7 -19 -20 -19 -26
0 -25 -18 1 -46 21 -22 21 -25 5 -48 -9 -14 -16 -39 -16 -56 0 -23 -6 -33 -25
-42 -33 -15 -32 -26 10 -88 19 -29 35 -62 35 -74 0 -21 -17 -46 -31 -46 -11 0
-56 85 -64 120 -5 22 -11 30 -21 26 -8 -3 -21 -9 -29 -12 -24 -10 -66 91 -66
163 -1 58 -17 93 -44 93 -18 0 -28 -49 -15 -65 14 -16 -1 -49 -26 -59 -27 -11
-72 -7 -86 8 -10 9 -20 11 -31 5 -24 -14 -52 42 -36 73 10 18 8 24 -10 39 -11
9 -21 27 -21 40 0 29 -27 48 -71 49 -32 0 -37 -3 -42 -27 -3 -16 -2 -32 3 -38
40 -52 -1 -159 -45 -116 -6 5 -21 11 -34 13 -18 2 -31 16 -48 49 -23 47 -93
106 -112 94 -6 -3 -11 -15 -11 -26 0 -11 -7 -33 -16 -50 -14 -28 -14 -32 7
-66 l22 -35 -21 6 c-16 5 -31 -2 -61 -32 -44 -43 -48 -57 -28 -115 13 -36 14
-37 30 -19 9 10 17 23 17 29 0 14 16 20 83 28 51 7 57 5 57 -11 0 -9 7 -25 15
-35 11 -11 14 -26 9 -43 -9 -36 -44 -34 -87 4 -48 42 -64 39 -69 -12 -4 -37 0
-47 24 -70 15 -14 28 -34 28 -45 0 -19 -40 -68 -61 -75 -9 -3 -9 -9 0 -25 6
-12 11 -32 11 -45 0 -39 45 -104 88 -127 27 -14 29 -41 3 -41 -10 0 -21 -7
-25 -15 -3 -8 -14 -15 -25 -15 -14 0 -18 5 -14 20 8 28 -17 84 -30 71 -19 -19
-45 -12 -51 14 -8 31 -20 32 -40 4 -21 -31 -47 -18 -40 19 4 17 1 32 -5 36 -8
5 -11 -445 -11 -1643 0 -908 4 -1651 8 -1651 4 0 75 11 158 25 82 14 178 25
214 25 36 1 99 7 140 16 41 8 122 19 180 24 103 9 149 17 278 45 43 9 72 10
90 4 17 -6 53 -5 97 2 39 5 89 13 113 16 44 5 51 17 32 54 -10 17 -7 19 25 19
21 0 43 8 54 19 17 17 23 18 57 6 30 -10 40 -20 47 -45 8 -30 10 -32 45 -28
20 3 49 2 63 -3 15 -4 48 -3 74 2 28 5 64 5 90 -1 44 -10 230 0 384 20 40 6
143 13 227 16 l153 5 13 -25 14 -26 16 33 c9 17 19 49 23 70 3 22 10 35 16 31
6 -3 9 -17 6 -30 -5 -29 -6 -29 45 -4 47 23 48 23 48 12 0 -4 -10 -12 -22 -17
-39 -17 -76 -93 -93 -186 -14 -80 -13 -93 6 -200 11 -63 22 -127 25 -143 9
-61 54 -226 84 -307 63 -168 71 -191 65 -197 -12 -12 -29 15 -90 140 -16 31
-21 34 -36 25 -14 -9 -21 -8 -31 2 -11 11 -10 13 7 9 16 -4 20 1 22 23 2 32
-7 40 -50 46 -17 1 -36 8 -42 15 -7 8 -6 9 3 4 18 -10 15 25 -4 52 -15 22 -17
22 -34 7 -17 -16 -19 -15 -29 2 -5 11 -11 32 -13 48 -3 27 0 30 39 37 33 7 46
16 63 46 19 31 20 41 11 73 -6 20 -11 48 -11 63 0 15 -5 36 -11 47 -6 11 -11
48 -12 82 l-2 62 -45 -1 c-25 -1 -110 -9 -190 -18 -297 -35 -610 -62 -895 -76
-104 -6 -257 -14 -340 -19 -82 -5 -242 -14 -355 -20 -113 -6 -266 -16 -340
-21 -74 -5 -192 -12 -262 -16 l-128 -7 0 -528 0 -529 108 0 c113 0 274 -11
537 -35 218 -21 494 -44 645 -55 188 -12 294 -34 262 -54 -5 -3 -43 -14 -85
-25 -112 -30 -154 -29 -662 19 -49 4 -130 13 -180 20 -49 6 -134 12 -188 13
-88 1 -99 -1 -117 -21 -18 -19 -32 -22 -95 -22 -61 0 -75 3 -75 15 0 9 14 22
31 29 30 13 28 13 -47 19 -42 4 -90 7 -106 7 l-28 0 0 -925 0 -925 7400 0
7400 0 0 2230 0 2231 -62 -6 c-57 -6 -152 -16 -428 -45 -52 -6 -133 -15 -180
-20 -47 -5 -159 -16 -250 -25 -166 -15 -288 -28 -455 -46 -305 -33 -486 -51
-605 -60 -74 -6 -139 -15 -144 -20 -15 -14 11 -82 49 -130 48 -61 46 -85 -15
-158 -118 -142 -349 -300 -502 -343 -68 -19 -179 -65 -343 -143 -132 -62 -355
-157 -470 -200 -220 -82 -356 -130 -555 -198 -147 -51 -351 -111 -755 -223
-395 -110 -505 -142 -664 -198 -41 -15 -109 -33 -150 -42 -42 -8 -89 -19 -106
-24 -32 -10 -216 -53 -300 -70 -27 -5 -93 -19 -145 -30 -52 -11 -117 -24 -145
-30 -27 -5 -81 -16 -120 -25 -38 -9 -92 -20 -120 -24 -27 -5 -97 -18 -155 -29
-235 -46 -262 -48 -357 -25 -31 7 -29 21 3 25 15 2 34 13 42 26 l15 23 -62 -7
c-54 -6 -64 -4 -76 12 -8 11 -15 14 -15 7 0 -16 -50 -9 -92 11 -17 9 -39 16
-50 16 -10 0 -18 7 -18 16 0 17 -1 17 -105 -4 -27 -5 -29 -4 -16 11 7 9 20 17
27 17 8 0 14 5 14 10 0 6 -10 10 -22 10 -34 0 -52 15 -46 38 4 14 -1 24 -17
32 -13 7 -26 21 -28 31 -3 11 -13 19 -24 19 -14 0 -15 2 -4 9 11 7 10 14 -6
37 -11 16 -30 54 -43 84 -12 30 -29 70 -37 89 l-14 33 -24 -33 c-14 -19 -31
-43 -40 -54 -8 -10 -15 -24 -15 -30 0 -18 -37 -88 -58 -111 -11 -11 -25 -30
-31 -42 -6 -12 -19 -22 -27 -22 -12 0 -14 -7 -9 -32 4 -18 14 -37 21 -41 8 -4
14 -14 14 -22 0 -7 6 -15 13 -18 9 -4 9 -7 0 -18 -10 -10 -16 -9 -33 6 -11 10
-20 24 -20 31 0 21 -22 64 -33 64 -6 0 -19 7 -29 17 -26 24 -33 9 -14 -31 9
-19 16 -41 16 -49 0 -9 5 -19 10 -22 6 -3 10 -21 10 -40 0 -18 5 -35 11 -37 6
-2 11 -20 11 -41 0 -20 4 -34 9 -31 5 3 6 -2 2 -12 -5 -13 -7 -13 -14 -3 -9
17 -59 156 -66 184 -2 11 -8 29 -13 40 -4 11 -16 43 -25 70 -9 28 -25 68 -35
90 -10 22 -37 87 -60 145 -24 58 -47 109 -52 115 -4 5 -8 15 -8 22 0 22 -112
242 -175 343 -138 221 -280 380 -429 478 -43 29 -83 52 -87 52 -23 0 -119 56
-119 70 0 8 -12 26 -26 39 l-25 24 -24 -23 c-25 -23 -33 -22 -72 6 -22 16 -23
15 -45 -30 -18 -38 -27 -46 -50 -46 -17 0 -28 -5 -28 -14 0 -7 -18 -26 -40
-41 -48 -34 -75 -96 -67 -156 8 -63 27 -73 28 -16 1 26 3 52 4 57 1 6 3 14 4
19 0 5 12 11 26 13 19 4 25 1 25 -11 0 -10 -4 -21 -9 -26 -32 -33 -70 -284
-65 -431 5 -140 28 -309 59 -427 19 -72 19 -87 1 -87 -15 0 -26 30 -26 73 0
15 -4 27 -9 27 -4 0 -12 19 -15 43 -4 23 -11 62 -16 87 -23 133 -33 200 -35
240 -1 25 -6 56 -12 70 -21 52 -25 120 -9 145 9 14 16 34 16 45 0 13 4 18 11
14 7 -4 7 1 -1 16 -7 14 -9 39 -5 65 4 28 1 55 -8 77 -8 18 -17 50 -21 71 -6
30 -11 37 -31 37 -28 0 -40 39 -30 99 9 54 -7 63 -124 69 -126 6 -219 -4 -249
-27 -23 -17 -23 -18 -6 -35 14 -15 26 -17 63 -11 25 4 55 7 66 7 11 -1 27 6
36 14 23 21 114 16 114 -6 0 -10 -12 -16 -40 -18 -66 -5 -74 -10 -45 -33 60
-50 92 -81 87 -85 -3 -3 -18 4 -34 15 -41 31 -139 41 -451 46 -292 5 -471 13
-483 21 -4 2 -22 -4 -39 -14 -24 -15 -39 -18 -73 -11 -23 4 -58 8 -78 9 -22 0
-39 6 -42 14 -4 11 -105 13 -602 10 -328 -2 -604 -5 -614 -9 -10 -3 -24 -17
-31 -31 -9 -17 -20 -24 -32 -21 -14 4 -18 -1 -18 -24 0 -16 -7 -41 -16 -54
-12 -18 -14 -37 -10 -72 5 -38 2 -53 -12 -71 -17 -22 -22 -23 -60 -13 -56 16
-85 6 -127 -40 -20 -22 -39 -37 -44 -35 -4 3 -11 28 -14 56 -9 71 -46 220 -63
252 -19 36 -17 125 6 236 12 61 25 99 37 108 10 8 74 49 143 92 201 124 245
179 340 417 101 254 248 473 457 678 166 164 299 248 528 337 61 23 124 48
140 55 52 22 289 125 310 135 47 22 215 83 340 125 39 12 102 35 140 49 39 15
86 31 105 36 34 8 172 48 310 90 36 11 101 29 145 41 44 12 121 32 170 46 261
71 520 131 655 153 30 5 118 21 195 34 77 14 203 35 280 47 77 11 160 25 185
31 60 13 518 20 525 7 4 -5 -1 -12 -9 -15 -19 -7 -21 -34 -3 -34 62 1 305 42
454 77 28 7 202 -22 303 -49 41 -11 89 -24 105 -28 165 -42 652 -229 891 -341
54 -25 60 -24 72 11 14 39 39 45 198 45 122 0 133 -2 167 -25 37 -26 107 -122
107 -148 0 -9 -10 -26 -21 -38 l-22 -23 27 -12 c20 -9 93 -10 309 -3 308 10
462 5 607 -21 71 -13 164 -18 370 -20 499 -4 630 -42 858 -248 175 -158 267
-253 276 -284 4 -12 47 -59 96 -104 49 -45 92 -91 96 -103 4 -11 18 -45 31
-74 29 -64 79 -251 92 -346 6 -38 14 -73 20 -79 10 -10 96 0 231 28 132 27
258 45 375 55 132 10 482 55 558 70 26 6 67 10 90 10 44 -1 341 38 542 70 66
11 140 21 165 24 54 6 213 26 258 32 l32 5 0 1694 0 1695 -4269 0 c-2836 0
-4272 -3 -4276 -10 -3 -5 -15 -10 -26 -10 -10 0 -19 5 -19 10 0 13 -245 13
-268 0 -9 -5 -29 -14 -44 -20 -46 -16 -33 -35 32 -48 32 -7 61 -16 64 -21 3
-4 -2 -18 -11 -30 -11 -16 -18 -20 -26 -12 -6 6 -21 11 -34 11 -12 0 -27 9
-33 20 -16 30 -27 24 -33 -17 -4 -21 -7 -42 -9 -48 -1 -5 17 -23 40 -38 23
-16 42 -31 42 -35 0 -15 -101 -13 -123 3 -24 17 -53 20 -61 6 -3 -5 4 -21 16
-36 12 -15 22 -40 23 -54 3 -68 6 -77 28 -86 29 -13 31 -58 2 -64 -26 -4 -37
-22 -23 -38 15 -18 45 -16 56 3 5 9 14 15 20 13 7 -3 3 -21 -10 -51 -19 -44
-22 -47 -50 -41 -24 5 -30 2 -35 -15 -8 -33 -32 -35 -45 -4 -7 15 -27 42 -46
59 -21 21 -32 39 -28 48 10 27 -60 145 -87 145 -5 0 -22 11 -39 25 -16 14 -40
25 -54 25 -14 0 -30 10 -40 26 -12 17 -24 24 -36 21 -30 -8 -78 50 -78 96 0
31 -4 39 -26 47 -15 6 -38 19 -52 30 -34 27 -48 25 -82 -10 -16 -16 -34 -30
-39 -30 -5 0 -34 29 -63 64 l-53 65 -56 0 c-43 1 -58 -3 -63 -15z m999 -316
c27 -12 29 -16 16 -37 -8 -12 -14 -10 -34 9 -14 14 -23 28 -21 32 7 10 8 10
39 -4z m-968 -43 c3 -9 2 -19 -1 -23 -8 -8 -38 10 -44 26 -6 18 38 14 45 -3z
m-27 -50 c10 -12 10 -19 2 -27 -16 -16 -42 -2 -42 22 0 24 22 26 40 5z m90
-120 c0 -37 -4 -47 -26 -62 -28 -18 -48 -12 -68 20 -11 18 12 70 42 94 28 23
52 -2 52 -52z m994 9 c7 -19 -1 -34 -19 -34 -18 0 -28 17 -21 35 7 20 32 19
40 -1z m-59 -74 c3 -5 1 -10 -4 -10 -6 0 -11 5 -11 10 0 6 2 10 4 10 3 0 8 -4
11 -10z m-970 -130 c3 -5 1 -10 -4 -10 -6 0 -11 5 -11 10 0 6 2 10 4 10 3 0 8
-4 11 -10z m75 -66 c0 -24 -3 -26 -32 -20 -39 8 -40 9 -32 30 4 10 17 16 35
16 25 0 29 -4 29 -26z m-1705 -42 c0 -18 -20 -15 -23 4 -3 10 1 15 10 12 7 -3
13 -10 13 -16z m-219 -146 c7 -29 -1 -46 -22 -46 -9 0 -14 10 -14 28 0 47 25
59 36 18z m1074 -15 c0 -6 -4 -13 -10 -16 -5 -3 -10 1 -10 9 0 9 5 16 10 16 6
0 10 -4 10 -9z m-880 -11 c0 -5 -4 -10 -10 -10 -5 0 -10 5 -10 10 0 6 5 10 10
10 6 0 10 -4 10 -10z m120 -91 c0 -9 -7 -19 -15 -23 -25 -9 -58 38 -39 57 11
11 54 -16 54 -34z m-707 5 c4 -4 -7 -21 -23 -37 -36 -37 -46 -32 -24 11 15 30
33 40 47 26z m127 -78 c0 -3 -4 -8 -10 -11 -5 -3 -10 -1 -10 4 0 6 5 11 10 11
6 0 10 -2 10 -4z m-2 -84 c4 -23 -12 -29 -37 -13 -19 12 -6 43 16 39 10 -2 19
-13 21 -26z m-1653 -28 c16 -30 17 -37 5 -44 -18 -11 -30 -4 -30 19 0 10 -7
24 -15 31 -8 7 -12 16 -9 21 11 18 30 8 49 -27z m-627 -62 c3 -34 -12 -45 -21
-14 -2 9 -8 25 -12 36 -6 14 -4 17 11 14 13 -2 20 -13 22 -36z m-240 -20 c3
-27 0 -33 -14 -30 -23 4 -39 31 -31 52 12 30 42 14 45 -22z m1070 -54 c-4 -29
-38 -38 -38 -10 0 22 8 32 27 32 9 0 13 -8 11 -22z m-858 -9 c0 -15 -5 -20
-22 -17 -34 5 -37 38 -4 38 20 0 26 -5 26 -21z m1096 -4 c9 -13 14 -29 12 -35
-4 -14 -48 27 -48 45 0 23 18 18 36 -10z m-1158 -37 c-3 -7 -14 -14 -26 -16
-16 -3 -20 1 -16 12 7 19 48 22 42 4z m84 -15 c22 -20 23 -29 3 -37 -25 -9
-45 4 -45 30 0 28 16 31 42 7z m158 -13 c0 -5 -7 -10 -15 -10 -8 0 -15 5 -15
10 0 6 7 10 15 10 8 0 15 -4 15 -10z m-316 -21 c29 -23 35 -66 11 -76 -31 -11
-85 58 -64 83 15 19 21 18 53 -7z m3140 -94 c3 -9 20 -23 38 -31 l33 -15 -37
5 c-31 4 -78 35 -78 51 0 12 39 3 44 -10z m-504 -75 c0 -11 -7 -20 -15 -20
-18 0 -19 12 -3 28 16 16 18 15 18 -8z m1667 14 c-3 -3 -12 -4 -19 -1 -8 3 -5
6 6 6 11 1 17 -2 13 -5z m3030 -100 c-3 -3 -12 -4 -19 -1 -8 3 -5 6 6 6 11 1
17 -2 13 -5z m-3014 -66 c-13 -12 -26 -18 -30 -14 -4 4 1 14 11 22 31 22 43
17 19 -8z m721 16 c9 -3 16 -10 16 -15 0 -14 -26 -10 -40 6 -13 16 -3 20 24 9z
m-3686 -16 c-6 -18 -28 -21 -28 -4 0 9 7 16 16 16 9 0 14 -5 12 -12z m-1168
-19 c0 -5 -4 -9 -10 -9 -5 0 -10 7 -10 16 0 8 5 12 10 9 6 -3 10 -10 10 -16z
m1450 -134 c0 -8 -7 -15 -15 -15 -8 0 -15 7 -15 15 0 8 7 15 15 15 8 0 15 -7
15 -15z m-52 -41 c-9 -9 -21 -13 -27 -10 -20 13 -11 26 16 26 25 0 26 -1 11
-16z m596 -59 c3 -8 15 -15 26 -15 12 0 20 -7 20 -16 0 -9 9 -18 20 -21 11 -3
20 -12 20 -20 0 -11 -6 -14 -22 -9 -13 3 -33 6 -45 6 -16 0 -23 6 -23 20 0 11
-7 20 -15 20 -8 0 -15 8 -15 18 0 32 23 44 34 17z m-661 -29 c7 -18 -1 -26
-25 -26 -11 0 -18 7 -18 20 0 23 35 28 43 6z m352 4 c4 -6 -5 -10 -19 -10 -14
0 -26 5 -26 10 0 6 9 10 19 10 11 0 23 -4 26 -10z m-75 -4 c0 -3 -4 -8 -10
-11 -5 -3 -10 -1 -10 4 0 6 5 11 10 11 6 0 10 -2 10 -4z m185 -7 c9 -14 7 -15
-35 -24 l-35 -8 25 21 c29 24 36 26 45 11z m511 -10 c8 -14 -18 -31 -30 -19
-9 9 0 30 14 30 5 0 12 -5 16 -11z m-1061 -12 c23 -18 3 -32 -24 -17 -11 5
-31 10 -46 10 -15 0 -24 4 -20 10 9 15 68 12 90 -3z m135 -9 c0 -6 -7 -7 -16
-4 -9 3 -18 6 -20 6 -3 0 -3 4 1 10 7 11 35 2 35 -12z m214 -24 c6 -16 -12
-18 -63 -8 -40 8 -40 22 2 26 40 4 54 0 61 -18z m646 2 c0 -8 -4 -18 -10 -21
-5 -3 -10 3 -10 14 0 12 5 21 10 21 6 0 10 -6 10 -14z m-90 -16 c0 -5 -4 -10
-10 -10 -5 0 -10 5 -10 10 0 6 5 10 10 10 6 0 10 -4 10 -10z m-252 -21 c-2 -6
-8 -10 -13 -10 -5 0 -11 4 -13 10 -2 6 4 11 13 11 9 0 15 -5 13 -11z m-748
-23 c0 -9 -7 -12 -21 -9 -16 4 -17 8 -7 14 19 13 28 11 28 -5z m48 -60 c3 -12
-1 -17 -10 -14 -7 3 -15 13 -16 22 -3 12 1 17 10 14 7 -3 15 -13 16 -22z m462
14 c0 -5 -2 -10 -4 -10 -3 0 -8 5 -11 10 -3 6 -1 10 4 10 6 0 11 -4 11 -10z
m-510 -64 c0 -14 -29 -31 -38 -21 -6 6 18 35 29 35 5 0 9 -6 9 -14z m1320 -15
c0 -10 -30 -24 -37 -17 -3 3 -2 9 2 15 8 13 35 15 35 2z m-1396 -19 c2 -4 1
-14 -4 -22 -7 -11 -12 -12 -21 -3 -6 6 -8 16 -5 22 8 13 23 14 30 3z m1536
-112 c0 -5 -4 -10 -10 -10 -5 0 -10 5 -10 10 0 6 5 10 10 10 6 0 10 -4 10 -10z
m-2200 -19 c0 -12 -39 -25 -48 -16 -7 7 17 25 36 25 6 0 12 -4 12 -9z m460 -6
c0 -8 -7 -15 -15 -15 -8 0 -15 7 -15 15 0 8 7 15 15 15 8 0 15 -7 15 -15z
m-1290 -89 c0 -3 -4 -8 -10 -11 -5 -3 -10 -1 -10 4 0 6 5 11 10 11 6 0 10 -2
10 -4z m85 -26 c3 -5 2 -10 -4 -10 -5 0 -13 5 -16 10 -3 6 -2 10 4 10 5 0 13
-4 16 -10z m2525 -89 c0 -6 -5 -13 -10 -16 -15 -9 -43 3 -35 15 8 13 45 13 45
1z m-1380 -21 c0 -5 -5 -10 -11 -10 -5 0 -7 5 -4 10 3 6 8 10 11 10 2 0 4 -4
4 -10z m-1340 -51 c0 -6 -4 -7 -10 -4 -5 3 -10 11 -10 16 0 6 5 7 10 4 6 -3
10 -11 10 -16z m14200 -238 c0 -10 -40 -22 -52 -15 -18 11 -6 24 22 24 17 0
30 -4 30 -9z m-12240 -16 c0 -9 -6 -12 -15 -9 -8 4 -15 10 -15 15 0 5 7 9 15
9 8 0 15 -7 15 -15z m12160 -3 c0 -4 -9 -13 -20 -20 -11 -7 -20 -17 -20 -23 0
-5 5 -7 11 -4 5 4 22 4 36 0 26 -6 26 -7 7 -25 -22 -21 -112 -35 -133 -21 -12
8 -12 12 -2 25 7 8 10 20 7 25 -4 6 -1 19 6 31 10 15 23 20 60 20 27 0 48 -3
48 -8z m-11720 -42 c0 -17 -3 -19 -19 -10 -32 16 -34 30 -7 30 19 0 26 -5 26
-20z m130 -30 c0 -5 -4 -10 -10 -10 -5 0 -10 5 -10 10 0 6 5 10 10 10 6 0 10
-4 10 -10z m-265 -30 c3 -5 -1 -10 -9 -10 -9 0 -16 5 -16 10 0 6 4 10 9 10 6
0 13 -4 16 -10z m11915 -50 c0 -30 -14 -40 -60 -40 -27 0 -52 5 -55 10 -3 6
-17 10 -30 10 -26 0 -41 15 -25 25 6 4 25 8 42 11 18 2 38 10 46 18 12 12 19
11 48 -6 19 -11 34 -24 34 -28z m-12344 -171 c3 -6 17 -9 31 -6 l24 4 -22 -23
c-26 -28 -39 -30 -39 -8 0 9 -8 23 -17 30 -17 12 -17 13 -1 14 9 0 20 -5 24
-11z m209 1 c3 -5 1 -10 -4 -10 -6 0 -11 5 -11 10 0 6 2 10 4 10 3 0 8 -4 11
-10z m505 -74 c0 -8 -5 -18 -11 -22 -14 -8 -33 11 -25 25 10 16 36 13 36 -3z
m-1401 -255 c8 -5 11 -16 7 -26 -6 -17 -7 -17 -26 0 -28 25 -13 46 19 26z
m-619 -278 c0 -19 -18 -16 -30 6 -17 33 -12 46 10 26 11 -10 20 -24 20 -32z
m-212 -9 c24 -17 27 -31 12 -54 -9 -13 -12 -12 -25 4 -9 12 -28 20 -47 20 -24
1 -34 6 -36 20 -3 16 1 18 27 14 17 -2 31 -1 31 4 0 12 13 10 38 -8z m99 -71
c-10 -9 -47 27 -47 45 0 10 8 6 27 -12 14 -14 23 -29 20 -33z m1190 -35 c14
-16 14 -18 -2 -24 -12 -5 -24 0 -37 15 -23 29 -23 47 0 60 14 8 18 6 20 -12 2
-12 11 -30 19 -39z m-1007 36 c0 -8 -4 -12 -10 -9 -5 3 -10 10 -10 16 0 5 5 9
10 9 6 0 10 -7 10 -16z m805 -4 c8 -13 -20 -24 -41 -16 -20 8 -9 26 16 26 10
0 22 -5 25 -10z m-1230 -20 c0 -23 -69 -20 -73 3 -3 16 2 18 35 15 26 -2 38
-8 38 -18z m-135 -30 c0 -5 -11 -10 -25 -10 -14 0 -25 5 -25 10 0 6 11 10 25
10 14 0 25 -4 25 -10z m1791 -6 c10 -13 10 -17 -2 -25 -19 -12 -22 -11 -44 4
-10 8 -15 19 -11 25 10 17 41 15 57 -4z m-1116 -44 c3 -5 -3 -10 -15 -10 -12
0 -18 5 -15 10 3 6 10 10 15 10 5 0 12 -4 15 -10z m534 -17 c-10 -11 -14 -11
-20 -1 -10 17 -2 28 17 21 11 -4 12 -8 3 -20z m475 12 c11 -8 17 -17 14 -21
-8 -8 -48 14 -48 26 0 14 12 12 34 -5z m-929 -45 c37 0 47 -5 69 -32 35 -46
20 -56 -51 -34 -83 26 -110 54 -80 85 10 10 13 9 15 -3 3 -12 16 -16 47 -16z
m693 2 c11 -14 10 -18 -3 -20 -9 -2 -27 3 -40 12 -18 12 -30 13 -50 6 -33 -13
-51 -4 -34 17 17 19 108 8 127 -15z m-1231 2 c-3 -3 -12 -4 -19 -1 -8 3 -5 6
6 6 11 1 17 -2 13 -5z m103 -4 c0 -5 -2 -10 -4 -10 -3 0 -8 5 -11 10 -3 6 -1
10 4 10 6 0 11 -4 11 -10z m244 -25 c3 -8 1 -15 -4 -15 -6 0 -10 7 -10 15 0 8
2 15 4 15 2 0 6 -7 10 -15z m1500 -17 c-7 -11 -44 -10 -44 2 0 16 34 30 42 17
4 -6 4 -15 2 -19z m-986 -11 c3 -15 0 -18 -17 -12 -27 8 -82 -25 -101 -61 -22
-40 -60 -61 -112 -62 -35 0 -48 4 -48 14 0 18 -14 18 -30 -1 -7 -8 -20 -15
-30 -15 -9 0 -29 -9 -43 -20 -14 -11 -32 -20 -40 -20 -20 0 -34 23 -18 28 7 2
32 21 56 42 58 50 73 54 131 34 34 -11 49 -13 52 -5 2 6 17 18 32 26 16 8 30
25 32 37 3 20 8 23 41 21 20 -1 37 2 37 8 0 19 55 5 58 -14z m-165 6 c-7 -2
-19 -2 -25 0 -7 3 -2 5 12 5 14 0 19 -2 13 -5z m247 -63 c0 -5 -4 -10 -10 -10
-5 0 -10 5 -10 10 0 6 5 10 10 10 6 0 10 -4 10 -10z m815 -49 c7 -12 -12 -24
-25 -16 -11 7 -4 25 10 25 5 0 11 -4 15 -9z m-1375 -56 c27 -8 27 -56 0 -80
-11 -10 -20 -24 -20 -31 0 -8 -11 -21 -25 -30 -20 -13 -30 -14 -60 -4 -41 14
-108 5 -126 -16 -6 -8 -21 -14 -33 -14 -20 0 -20 1 5 23 15 12 29 29 32 37 6
19 85 44 101 32 16 -13 96 7 103 25 3 8 -1 28 -11 43 -21 36 -21 57 -1 36 8
-8 24 -18 35 -21z m690 -10 c10 -12 9 -16 -5 -21 -19 -8 -40 9 -31 25 10 15
21 14 36 -4z m214 -6 c13 -20 13 -25 0 -51 -8 -16 -26 -34 -41 -41 -21 -9 -27
-8 -39 8 -20 26 -18 34 11 41 27 7 34 24 11 24 -21 0 -31 21 -15 31 24 15 57
10 73 -12z m-215 -69 c27 0 34 -15 15 -34 -21 -21 -34 -20 -68 8 -20 17 -27
29 -22 41 6 16 8 16 31 1 13 -9 33 -16 44 -16z m4351 27 c0 -2 -9 -14 -20 -27
-14 -16 -20 -18 -20 -9 0 16 19 39 32 39 4 0 8 -2 8 -3z m-1400 -42 c0 -9 -6
-12 -15 -9 -8 4 -15 10 -15 15 0 5 7 9 15 9 8 0 15 -7 15 -15z m1122 -27 c-18
-18 -15 -27 8 -21 24 6 26 -9 3 -28 -13 -11 -17 -11 -20 -1 -3 6 -13 12 -23
12 -9 0 -23 7 -30 15 -10 12 -9 15 6 16 11 1 24 1 31 0 6 -1 14 3 18 9 3 5 9
10 13 10 3 0 1 -5 -6 -12z m7253 -18 c-3 -5 -11 -10 -16 -10 -6 0 -7 5 -4 10
3 6 11 10 16 10 6 0 7 -4 4 -10z m-11957 -12 c10 -10 4 -15 -25 -24 -44 -13
-53 -10 -53 17 0 15 7 19 33 19 18 0 39 -6 45 -12z m742 -3 c0 -20 -28 -31
-42 -17 -10 10 8 23 40 31 1 1 2 -6 2 -14z m2820 5 c0 -5 -5 -10 -11 -10 -5 0
-7 5 -4 10 3 6 8 10 11 10 2 0 4 -4 4 -10z m8365 -20 c-3 -5 -10 -10 -16 -10
-5 0 -9 5 -9 10 0 6 7 10 16 10 8 0 12 -4 9 -10z m-7168 -90 c-2 -34 3 -54 15
-66 15 -16 15 -20 -7 -63 -13 -25 -29 -71 -35 -103 -6 -31 -25 -77 -42 -103
-36 -54 -112 -114 -146 -115 -12 0 -30 -4 -40 -9 -106 -57 -436 -78 -552 -36
-46 17 -114 22 -460 30 -191 5 -346 16 -455 35 -152 25 -192 -6 -183 -141 3
-41 11 -83 18 -95 34 -54 137 -98 284 -120 171 -26 200 -32 228 -43 87 -33
234 -64 348 -71 118 -8 164 -19 230 -54 14 -7 36 -16 50 -19 14 -4 56 -27 94
-52 38 -25 71 -45 74 -45 16 0 62 -57 62 -76 0 -20 -5 -22 -82 -26 -46 -2 -92
-1 -103 3 -19 6 -18 8 7 17 14 6 29 16 34 23 9 15 -32 50 -98 85 -76 39 -98
45 -388 104 -58 12 -123 29 -145 37 -43 16 -194 50 -247 56 -31 4 -97 16 -195
38 -23 5 -64 9 -91 9 -90 0 -155 17 -183 49 -22 23 -28 43 -34 101 -8 78 8
236 31 309 8 25 14 59 14 77 0 27 6 35 32 49 21 10 34 12 36 5 5 -15 22 -12
22 5 0 17 16 20 25 5 3 -5 12 -7 19 -4 8 3 28 -2 45 -10 46 -24 182 -24 218 0
29 18 49 18 57 -2 8 -20 26 -8 26 17 0 16 5 19 19 14 11 -3 22 -1 26 5 3 5 25
10 48 10 58 0 28 19 -33 21 l-45 1 53 15 54 16 23 -26 c16 -16 31 -24 43 -20
11 2 23 0 26 -6 5 -7 49 -11 118 -11 98 0 109 -2 98 -15 -19 -23 -4 -30 33
-17 41 15 305 16 342 2 18 -7 63 -6 138 1 194 19 254 20 268 3 10 -13 14 -12
31 3 22 20 121 53 159 53 15 0 35 11 49 27 24 28 37 87 21 98 -12 7 -4 33 17
58 24 27 30 20 29 -33z m7075 17 c-16 -16 -22 -36 -22 -66 0 -23 4 -40 8 -37
13 8 530 12 537 4 13 -13 -62 -21 -295 -32 -36 -2 -94 -7 -129 -11 -111 -13
-47 -25 119 -23 159 2 183 -2 174 -26 -3 -9 3 -17 15 -21 12 -3 21 -10 21 -14
0 -7 -24 -12 -145 -27 -11 -1 -56 -7 -100 -14 -44 -6 -98 -13 -120 -16 -60 -8
-69 -12 -57 -27 16 -19 -22 -39 -61 -32 -19 4 -47 0 -69 -9 -21 -9 -50 -16
-66 -16 -15 0 -33 -5 -39 -11 -8 -8 -17 -7 -31 2 -32 20 -36 4 -8 -24 42 -42
56 -46 99 -31 33 12 43 12 67 -1 16 -8 50 -15 77 -15 58 0 46 -15 -19 -24 -30
-5 -48 -3 -48 3 0 22 -42 21 -89 -3 -51 -25 -60 -24 -74 16 -10 29 -84 59
-158 65 -38 3 -69 9 -69 14 0 4 15 17 33 28 18 11 61 49 96 84 59 60 67 65
139 82 42 9 89 23 103 31 37 19 63 62 69 114 4 35 10 47 30 57 33 16 38 8 12
-20z m-11897 3 c-3 -5 -12 -10 -18 -10 -7 0 -6 4 3 10 19 12 23 12 15 0z
m1275 -20 c0 -5 -2 -10 -4 -10 -3 0 -8 5 -11 10 -3 6 -1 10 4 10 6 0 11 -4 11
-10z m3485 -69 c-3 -12 -11 -21 -16 -21 -10 0 -12 21 -3 45 10 24 27 2 19 -24z
m-4166 15 c18 -21 -13 -35 -56 -26 -40 10 -47 15 -38 29 9 16 81 13 94 -3z
m536 -27 c4 -6 5 -12 2 -15 -7 -7 -37 7 -37 17 0 13 27 11 35 -2z m-1604 -45
c7 -9 23 -20 36 -25 25 -9 32 -39 9 -39 -7 0 -24 9 -37 19 -16 13 -34 17 -52
14 -32 -6 -38 16 -7 24 11 3 20 9 20 14 0 14 16 10 31 -7z m2333 -69 l7 -40
-14 30 c-8 17 -12 35 -10 41 2 7 0 15 -6 19 -6 3 -11 14 -11 23 1 28 27 -28
34 -73z m1721 75 c4 -6 4 -18 1 -26 -5 -13 -9 -13 -36 1 -16 8 -30 20 -30 25
0 13 57 13 65 0z m1780 -1 c-48 -14 -115 -84 -128 -134 -3 -15 -5 -13 -6 8 0
15 4 27 9 27 6 0 10 5 10 12 0 18 50 78 66 78 7 0 14 5 14 10 0 6 15 10 33 9
l32 -1 -30 -9z m102 5 c-3 -3 -12 -4 -19 -1 -8 3 -5 6 6 6 11 1 17 -2 13 -5z
m-5467 -24 c0 -5 -4 -10 -9 -10 -6 0 -13 5 -16 10 -3 6 1 10 9 10 9 0 16 -4
16 -10z m114 -49 c12 -19 7 -26 -19 -27 -60 -2 -65 -4 -71 -31 -13 -56 -36
-66 -75 -33 -16 13 -20 22 -13 27 6 5 13 15 17 25 3 9 19 19 36 23 17 4 31 11
31 16 0 14 42 28 65 22 11 -3 24 -13 29 -22z m5453 23 c-3 -3 -12 -4 -19 -1
-8 3 -5 6 6 6 11 1 17 -2 13 -5z m-3427 -14 c0 -5 -6 -10 -14 -10 -8 0 -18 5
-21 10 -3 6 3 10 14 10 12 0 21 -4 21 -10z m-2409 -23 c-10 -9 -11 -8 -5 6 3
10 9 15 12 12 3 -3 0 -11 -7 -18z m2434 3 c3 -5 1 -10 -4 -10 -6 0 -11 5 -11
10 0 6 2 10 4 10 3 0 8 -4 11 -10z m-2477 -40 c-14 -21 -33 -26 -43 -11 -6 10
22 30 43 31 10 0 10 -4 0 -20z m2552 -17 c22 -20 40 -41 40 -47 0 -6 -10 1
-21 17 -11 15 -26 27 -32 27 -7 0 -18 9 -25 20 -18 30 -6 24 38 -17z m-2803 5
c-3 -8 -6 -5 -6 6 -1 11 2 17 5 13 3 -3 4 -12 1 -19z m175 -50 c-7 -7 -12 -8
-12 -2 0 14 12 26 19 19 2 -3 -1 -11 -7 -17z m5604 -46 c-12 -12 -18 8 -10 35
l8 28 4 -28 c2 -16 1 -31 -2 -35z m-362 13 c-4 -8 -10 -15 -15 -15 -5 0 -9 7
-9 15 0 8 7 15 15 15 9 0 12 -6 9 -15z m343 -191 c2 -174 10 -226 62 -404 10
-36 30 -83 45 -104 18 -27 23 -43 16 -50 -16 -16 -12 -53 6 -60 14 -5 16 -16
11 -66 -4 -33 -3 -62 3 -65 5 -3 7 -12 4 -19 -3 -8 4 -31 15 -52 12 -21 21
-42 21 -46 0 -5 8 -27 19 -51 10 -23 27 -62 37 -87 23 -53 134 -249 164 -288
48 -63 144 -151 191 -177 45 -24 57 -26 113 -21 39 5 81 18 114 36 59 32 65
26 22 -23 -28 -32 -84 -57 -128 -57 -29 0 -123 43 -169 76 -73 54 -196 199
-254 300 -37 64 -119 233 -119 244 0 6 -5 18 -10 28 -11 19 -62 156 -89 242
-74 231 -93 353 -93 582 0 156 5 228 15 228 1 0 3 -75 4 -166z m6513 126 c0
-5 -7 -10 -16 -10 -8 0 -12 5 -9 10 3 6 10 10 16 10 5 0 9 -4 9 -10z m-9480
-51 c0 -5 -13 -9 -28 -9 -61 0 -92 -77 -92 -231 0 -106 24 -261 55 -353 20
-59 29 -142 17 -150 -11 -6 -31 46 -56 144 -27 107 -38 225 -34 360 3 115 7
143 27 188 14 30 33 57 44 61 24 9 67 2 67 -10z m9762 -39 c21 -14 38 -31 38
-37 0 -19 -4 -17 -48 28 -45 45 -44 45 10 9z m-9521 -38 c9 2 14 -8 16 -31 1
-18 6 -38 12 -44 6 -6 11 -18 11 -26 0 -9 7 -29 15 -45 8 -15 15 -34 15 -41 0
-7 3 -15 8 -17 12 -5 42 -68 42 -88 0 -10 5 -20 11 -22 6 -2 9 -13 7 -23 -3
-16 -8 -11 -22 20 -43 96 -71 155 -112 236 -24 47 -41 89 -37 93 4 3 10 1 13
-4 4 -6 13 -10 21 -8z m9535 -108 c-9 -8 -16 -22 -16 -30 0 -7 -18 -25 -40
-39 -42 -26 -55 -57 -21 -48 10 3 22 0 25 -6 4 -6 27 -11 52 -11 25 0 44 -5
44 -11 0 -13 -82 -9 -92 5 -4 6 -14 4 -26 -7 -11 -10 -23 -17 -28 -16 -38 7
-78 -5 -118 -36 -26 -19 -50 -35 -56 -35 -15 0 -80 -47 -73 -54 4 -3 -1 -6
-10 -6 -10 0 -25 -4 -35 -9 -40 -21 -94 -42 -98 -38 -7 6 27 33 76 59 65 35
145 86 223 140 37 27 69 48 70 48 12 0 127 116 128 129 1 13 2 13 6 -1 2 -10
-3 -25 -11 -34z m124 -144 c0 -5 -9 -10 -20 -10 -11 0 -20 5 -20 10 0 6 9 10
20 10 11 0 20 -4 20 -10z m80 0 c0 -5 -10 -10 -22 -10 -19 0 -20 2 -8 10 19
13 30 13 30 0z m-10440 -60 c0 -5 -7 -10 -16 -10 -8 0 -12 5 -9 10 3 6 10 10
16 10 5 0 9 -4 9 -10z m-120 -61 c0 -5 -3 -9 -7 -10 -88 -7 -206 -8 -198 0 13
12 36 16 128 18 43 1 77 -2 77 -8z m80 -4 c0 -16 -45 -21 -54 -6 -8 12 4 21
31 21 14 0 23 -6 23 -15z m923 -32 c19 -27 45 -67 56 -90 20 -38 26 -42 72
-48 47 -7 79 -25 43 -25 -15 0 -81 -19 -93 -27 -2 -1 4 -14 13 -27 9 -14 16
-34 16 -45 0 -11 5 -23 10 -26 6 -3 10 -15 10 -26 0 -10 4 -19 9 -19 5 0 13
-9 16 -20 4 -13 18 -23 36 -27 40 -8 36 -23 -6 -23 -34 0 -35 2 -80 95 -25 52
-45 99 -45 105 0 5 -20 50 -45 99 -42 83 -65 151 -52 151 3 0 21 -21 40 -47z
m3121 2 c9 -13 16 -28 16 -32 0 -4 -5 0 -11 10 -5 9 -19 17 -29 17 -11 0 -20
7 -20 15 0 23 26 18 44 -10z m-6030 -14 c9 -15 -18 -31 -34 -20 -13 8 -13 10
0 19 19 12 27 12 34 1z m1691 -1 c-3 -5 -10 -10 -16 -10 -5 0 -9 5 -9 10 0 6
7 10 16 10 8 0 12 -4 9 -10z m1893 -28 c125 -21 166 -32 173 -45 6 -10 22 -17
40 -17 37 0 92 -27 86 -43 -2 -6 -25 -20 -51 -30 -44 -19 -48 -19 -59 -3 -12
16 -16 16 -56 2 -24 -8 -48 -13 -55 -10 -15 5 -367 36 -433 38 -39 1 -58 7
-74 23 l-22 21 27 26 c16 14 50 30 79 36 29 6 59 15 67 20 25 16 107 11 278
-18z m-3423 8 c-3 -5 -11 -10 -16 -10 -6 0 -7 5 -4 10 3 6 11 10 16 10 6 0 7
-4 4 -10z m1988 -25 c53 -10 51 -41 -2 -50 -31 -5 -250 -14 -400 -17 -13 0
-33 9 -44 21 l-21 21 23 0 c16 0 21 -4 17 -15 -4 -12 5 -15 54 -15 46 0 58 3
54 14 -7 17 68 42 156 52 36 4 74 10 85 15 13 4 24 2 30 -6 6 -7 28 -16 48
-20z m-2298 -6 c-11 -17 -35 -9 -35 11 0 18 3 19 20 10 11 -6 18 -15 15 -21z
m1465 0 c0 -10 -74 -9 -91 2 -14 8 -13 9 31 22 17 5 60 -12 60 -24z m162 19
c-8 -8 -17 -8 -34 0 -22 10 -21 11 12 11 26 1 31 -2 22 -11z m68 -2 c0 -8 -7
-17 -16 -20 -23 -9 -24 -8 -24 14 0 13 7 20 20 20 11 0 20 -6 20 -14z m-1140
-6 c0 -5 -4 -10 -10 -10 -5 0 -10 5 -10 10 0 6 5 10 10 10 6 0 10 -4 10 -10z
m-175 -21 c-8 -12 -35 -12 -35 0 0 11 22 20 33 14 4 -2 5 -9 2 -14z m5818 -9
c26 -17 47 -37 47 -45 0 -16 -16 -20 -24 -6 -3 4 -17 6 -31 4 -28 -6 -64 28
-65 60 0 24 18 21 73 -13z m5688 -11 c-13 -10 -29 -19 -36 -19 -6 0 -30 -12
-51 -28 -21 -15 -52 -34 -69 -42 -16 -8 -34 -21 -38 -27 -4 -7 -14 -13 -22
-13 -7 0 -15 -4 -17 -8 -6 -15 -66 -52 -85 -52 -16 0 -15 2 4 13 21 11 163
109 267 183 36 25 52 32 60 24 8 -8 4 -17 -13 -31z m-11031 -14 c0 -19 -5 -25
-21 -25 -11 0 -18 3 -16 8 2 4 7 15 10 25 9 26 27 21 27 -8z m230 10 c-16 -19
-31 -19 -56 0 -18 13 -16 14 25 15 37 0 42 -2 31 -15z m250 -5 c0 -5 -5 -10
-11 -10 -5 0 -7 5 -4 10 3 6 8 10 11 10 2 0 4 -4 4 -10z m-1201 -32 l46 -23
-60 -3 c-70 -3 -137 9 -142 25 -4 11 13 15 91 21 11 1 40 -8 65 -20z m539 16
c12 -4 22 -12 22 -19 0 -18 -59 -27 -100 -15 -57 16 -209 13 -227 -6 -9 -8
-22 -13 -30 -10 -8 3 -21 6 -29 6 -8 0 -14 4 -14 9 0 9 71 20 200 31 124 10
152 10 178 4z m310 -6 c-5 -15 -58 -29 -82 -22 -31 10 6 30 62 33 14 1 22 -4
20 -11z m-1148 -28 c0 -5 -16 -10 -35 -10 -19 0 -35 5 -35 10 0 6 16 10 35 10
19 0 35 -4 35 -10z m40 0 c0 -5 -7 -10 -16 -10 -8 0 -12 5 -9 10 3 6 10 10 16
10 5 0 9 -4 9 -10z m3018 -77 c-11 -13 -15 -11 -35 11 -37 43 -29 62 12 30 29
-22 33 -29 23 -41z m2504 30 c27 -31 41 -64 31 -74 -6 -6 -15 -4 -23 6 -7 8
-20 15 -29 15 -13 0 -14 2 -2 9 12 8 12 13 -3 35 -13 20 -14 26 -3 26 8 0 21
-8 29 -17z m-100 -12 c4 -1 14 -8 23 -17 12 -12 13 -19 5 -29 -9 -10 -33 -13
-92 -9 -76 4 -108 14 -108 35 0 20 92 30 172 20z m1678 -61 c0 -5 -7 -10 -16
-10 -8 0 -12 5 -9 10 3 6 10 10 16 10 5 0 9 -4 9 -10z m-54 -49 c-9 -10 -16
-25 -16 -33 0 -27 -11 -48 -26 -48 -29 0 -3 89 35 117 23 17 28 -13 7 -36z
m4613 6 c-35 -34 -96 -69 -114 -65 -9 2 13 20 52 45 77 47 96 53 62 20z
m-8539 -8 c0 -11 -4 -17 -10 -14 -5 3 -10 13 -10 21 0 8 5 14 10 14 6 0 10 -9
10 -21z m4510 -19 c18 -11 22 -10 -60 -15 l-65 -4 40 14 c49 17 66 18 85 5z
m95 -20 c-3 -5 -23 -10 -43 -9 -33 1 -34 2 -12 9 36 12 62 12 55 0z m-828 -42
c-3 -8 -6 -5 -6 6 -1 11 2 17 5 13 3 -3 4 -12 1 -19z m686 15 c-7 -2 -21 -2
-30 0 -10 3 -4 5 12 5 17 0 24 -2 18 -5z m-3833 -53 c39 0 51 -3 40 -10 -17
-11 -100 -13 -124 -4 -25 9 -19 27 7 20 12 -3 47 -6 77 -6z m3310 -22 c0 -10
-64 -11 -73 -1 -4 3 1 11 10 18 12 9 22 9 39 1 13 -6 24 -14 24 -18z m198 25
c-16 -2 -40 -2 -55 0 -16 2 -3 4 27 4 30 0 43 -2 28 -4z m-328 -37 c-13 -13
-35 7 -25 24 5 8 11 8 21 -1 10 -8 12 -15 4 -23z m-2645 4 c26 -7 23 -8 -20
-8 -27 0 -61 4 -75 8 -20 6 -17 8 20 8 25 0 59 -4 75 -8z m-1545 -105 c6 -3
10 -15 10 -26 0 -10 5 -19 10 -19 6 0 10 -7 10 -15 0 -18 -14 -20 -27 -2 -13
16 -33 89 -32 113 0 11 5 5 10 -13 5 -18 14 -35 19 -38z m8520 35 c-20 -13
-33 -13 -25 0 3 6 14 10 23 10 15 0 15 -2 2 -10z m-120 -50 c0 -5 -5 -10 -11
-10 -5 0 -7 5 -4 10 3 6 8 10 11 10 2 0 4 -4 4 -10z m-30 -20 c0 -5 -12 -10
-27 -10 -22 0 -25 2 -13 10 20 13 40 13 40 0z m-133 -56 c-3 -3 -12 -4 -19 -1
-8 3 -5 6 6 6 11 1 17 -2 13 -5z m-8173 -42 c9 -30 73 -142 92 -163 10 -11 14
-23 8 -28 -13 -11 -128 -51 -148 -51 -9 0 -16 -3 -16 -7 0 -5 -21 -17 -48 -27
-26 -10 -74 -31 -107 -46 -33 -15 -82 -38 -110 -50 -27 -12 -95 -44 -150 -70
-118 -57 -234 -110 -239 -110 -2 0 -33 -16 -68 -37 -100 -58 -388 -203 -402
-203 -8 0 -19 -6 -25 -14 -15 -17 -136 -76 -158 -76 -15 0 -14 2 2 13 10 8 15
19 12 24 -4 7 8 14 31 17 44 8 135 50 179 82 17 13 36 24 42 24 22 0 81 34 81
47 0 7 7 13 15 13 8 0 41 14 73 30 33 17 67 30 76 30 9 0 19 6 22 14 3 8 23
22 45 30 21 9 39 18 39 21 0 4 -20 15 -45 26 -25 11 -45 24 -45 28 0 15 31 22
65 15 20 -3 46 0 67 9 50 23 90 30 98 17 7 -12 96 5 115 21 5 5 16 9 25 9 17
0 80 28 90 39 3 3 21 14 40 23 19 10 42 22 50 27 8 5 33 17 55 27 34 16 37 19
18 22 -13 2 -23 7 -23 12 0 10 40 17 105 19 22 1 46 8 54 16 13 12 10 14 -22
8 -30 -4 -37 -2 -37 10 0 21 24 33 82 41 41 6 47 5 42 -8 -5 -12 1 -15 25 -13
34 2 43 17 10 17 -11 0 -18 4 -14 10 3 5 12 7 20 3 22 -8 19 29 -5 55 -15 16
-27 20 -55 15 -30 -5 -35 -3 -35 15 0 20 24 37 48 33 10 -2 9 5 -2 28 -20 38
-20 40 3 34 11 -3 22 -12 25 -21z m7806 -122 c-20 -13 -67 -13 -54 -1 9 10 56
19 64 13 2 -2 -2 -7 -10 -12z m-120 -50 c-20 -13 -50 -13 -50 0 0 6 15 10 33
10 24 0 28 -3 17 -10z m-7409 -22 c55 5 64 -8 25 -33 -22 -15 -28 -15 -53 -1
-16 8 -36 23 -44 32 -13 16 -12 17 4 7 11 -5 41 -8 68 -5z m7264 -28 c3 -5 -1
-10 -10 -10 -9 0 -13 5 -10 10 3 6 8 10 10 10 2 0 7 -4 10 -10z m-38 -16 c-3
-3 -12 -4 -19 -1 -8 3 -5 6 6 6 11 1 17 -2 13 -5z m-127 -51 c0 -12 -51 -33
-78 -33 -13 0 -33 -5 -45 -11 -19 -9 -18 -7 3 10 14 11 36 21 50 21 14 0 32 5
40 10 18 12 30 13 30 3z m-185 -73 c-3 -5 -10 -10 -16 -10 -5 0 -9 5 -9 10 0
6 7 10 16 10 8 0 12 -4 9 -10z m-50 -20 c4 -6 -6 -10 -22 -10 -22 0 -25 2 -13
10 19 12 27 12 35 0z m-60 -30 c-3 -5 -15 -10 -26 -10 -11 0 -17 5 -14 10 3 6
15 10 26 10 11 0 17 -4 14 -10z m-55 -20 c0 -5 -14 -10 -31 -10 -17 0 -28 4
-24 10 3 6 17 10 31 10 13 0 24 -4 24 -10z m-70 -20 c0 -5 -15 -13 -32 -19
-18 -5 -48 -14 -66 -20 -29 -9 -32 -8 -22 4 7 8 22 15 34 15 12 0 31 7 42 15
22 17 44 19 44 5z m-7975 -35 c56 -10 62 -13 30 -13 -22 0 -58 5 -80 13 -51
17 -37 17 50 0z m7835 -15 c0 -5 -8 -10 -17 -10 -15 0 -16 2 -3 10 19 12 20
12 20 0z m-60 -24 c0 -2 -7 -6 -15 -10 -8 -3 -15 -1 -15 4 0 6 7 10 15 10 8 0
15 -2 15 -4z m-50 -20 c0 -2 -7 -6 -15 -10 -8 -3 -15 -1 -15 4 0 6 7 10 15 10
8 0 15 -2 15 -4z m-73 -32 c-3 -3 -12 -4 -19 -1 -8 3 -5 6 6 6 11 1 17 -2 13
-5z m-57 -18 c0 -2 -9 -6 -20 -9 -11 -3 -20 -1 -20 4 0 5 9 9 20 9 11 0 20 -2
20 -4z m-75 -26 c3 -5 -2 -10 -11 -10 -10 0 -25 -6 -33 -13 -19 -16 -120 -42
-128 -33 -8 8 -8 8 77 38 89 31 87 31 95 18z m-7525 -30 c0 -5 -4 -10 -10 -10
-5 0 -10 5 -10 10 0 6 5 10 10 10 6 0 10 -4 10 -10z m7330 -40 c0 -5 -7 -10
-16 -10 -8 0 -12 5 -9 10 3 6 10 10 16 10 5 0 9 -4 9 -10z m-125 -50 c8 -13
-37 -30 -77 -30 -16 0 -43 -8 -59 -17 -23 -13 -31 -15 -41 -5 -9 9 -6 12 14
12 15 0 28 3 30 8 4 9 87 40 110 41 9 1 20 -4 23 -9z m-215 -70 c0 -5 -10 -10
-22 -9 -22 0 -22 1 -3 9 11 5 21 9 23 9 1 1 2 -3 2 -9z m-75 -30 c3 -5 1 -11
-4 -11 -26 -3 -30 -4 -37 -11 -4 -5 -25 -8 -47 -8 -48 0 -41 11 16 27 55 15
65 15 72 3z m-7290 -60 c-3 -5 -15 -10 -26 -10 -11 0 -17 5 -14 10 3 6 15 10
26 10 11 0 17 -4 14 -10z m-95 -44 c0 -2 -7 -6 -15 -10 -8 -3 -15 -1 -15 4 0
6 7 10 15 10 8 0 15 -2 15 -4z m7030 -16 c0 -5 -12 -10 -26 -10 -14 0 -23 4
-19 10 3 6 15 10 26 10 10 0 19 -4 19 -10z m-116 -37 c-10 -10 -38 -23 -63
-30 -53 -14 -130 -17 -115 -5 13 12 114 36 141 34 12 -1 25 3 28 8 3 6 11 10
16 10 6 0 3 -8 -7 -17z m-194 -63 c0 -9 -62 -30 -91 -30 -24 0 -30 -11 -16
-28 10 -13 7 -15 -27 -9 -38 6 -113 -6 -148 -24 -10 -5 -26 -9 -36 -9 -11 0
-32 -6 -48 -14 -16 -8 -54 -17 -84 -20 -54 -7 -55 -7 -31 10 13 10 40 21 60
25 20 4 74 19 121 34 202 65 300 86 300 65z m-514 -159 c0 -16 -11 -20 -66
-26 -88 -9 -102 -12 -109 -23 -8 -12 -43 -26 -59 -23 -15 2 -58 -10 -132 -38
-30 -12 -63 -21 -74 -21 -11 0 -39 -9 -63 -21 -50 -24 -118 -36 -126 -22 -4 6
22 17 56 26 34 9 89 25 121 36 33 12 69 21 81 21 12 0 25 3 28 6 12 12 112 43
140 44 15 0 27 4 27 9 0 8 54 26 125 42 48 10 51 10 51 -10z m-6066 -121 c11
-7 2 -10 -33 -10 -30 0 -46 4 -42 10 8 13 55 13 75 0z m5350 -89 c0 -11 -25
-21 -55 -21 -13 0 -27 -4 -30 -10 -3 -5 -21 -10 -38 -9 -35 0 -38 -2 38 30 42
17 85 22 85 10z m-170 -51 c0 -5 -12 -10 -27 -9 -25 0 -26 1 -8 9 27 12 35 12
35 0z m-75 -28 c-6 -5 -35 -14 -65 -21 -30 -8 -59 -17 -65 -21 -5 -4 -27 -13
-49 -20 -25 -8 -34 -15 -26 -20 18 -11 2 -32 -16 -22 -8 5 -38 5 -67 1 -29 -4
-61 -8 -72 -9 -18 -1 -19 -1 -2 -11 9 -5 22 -7 27 -4 15 9 67 -4 73 -18 3 -9
-28 -10 -135 -3 -123 8 -137 11 -116 22 12 7 32 13 42 14 24 0 304 76 371 100
52 18 116 26 100 12z m-4850 -92 c3 -6 -1 -7 -9 -4 -18 7 -21 14 -7 14 6 0 13
-4 16 -10z m42 -16 c-3 -3 -12 -4 -19 -1 -8 3 -5 6 6 6 11 1 17 -2 13 -5z
m2308 -54 c4 -6 -7 -10 -27 -10 -18 0 -75 -2 -127 -5 -59 -3 -91 -1 -85 4 17
18 229 27 239 11z m1925 -5 c0 -12 -13 -15 -60 -15 -93 0 -77 26 18 29 31 1
42 -3 42 -14z m480 -5 c62 -21 47 -26 -31 -9 -36 8 -47 14 -38 20 8 5 14 9 14
9 0 -1 25 -9 55 -20z m-2695 -20 c-3 -5 -28 -10 -54 -10 -26 0 -51 -4 -56 -9
-15 -14 -175 -24 -175 -12 0 6 8 11 18 12 27 0 103 10 147 19 60 12 127 12
120 0z m555 0 l25 -8 -25 0 c-14 -1 -43 3 -65 7 l-40 9 40 0 c22 0 51 -4 65
-8z m1500 0 c0 -6 -25 -10 -57 -9 -44 1 -52 3 -33 9 36 12 90 12 90 0z m197 4
c-3 -3 -12 -4 -19 -1 -8 3 -5 6 6 6 11 1 17 -2 13 -5z m-1547 -29 c12 -14 8
-15 -31 -9 -75 12 -90 23 -33 23 35 1 56 -4 64 -14z m1195 5 c-3 -5 -18 -10
-33 -9 -24 0 -25 1 -7 9 28 12 47 12 40 0z m482 4 c-3 -3 -12 -4 -19 -1 -8 3
-5 6 6 6 11 1 17 -2 13 -5z m-2767 -40 c-75 -20 -178 -28 -164 -14 12 12 112
27 179 28 39 0 39 0 -15 -14z m2108 10 c-10 -10 -89 -13 -83 -3 4 5 25 9 47 9
23 0 39 -3 36 -6z m-343 -44 c4 -6 -21 -11 -67 -11 -70 -2 -166 -7 -198 -10
-34 -4 -93 2 -86 9 7 6 110 13 298 20 26 1 50 -2 53 -8z m-2529 -19 c-7 -11
-86 -31 -121 -31 -15 0 -38 9 -52 20 l-26 20 102 0 c56 0 100 -4 97 -9z m520
-8 c-10 -11 -79 -33 -101 -33 -28 1 53 38 84 39 13 1 21 -2 17 -6z m1528 -32
c52 -12 63 -17 53 -27 -3 -3 -36 4 -73 16 -37 12 -75 19 -85 17 -9 -3 -23 0
-30 5 -17 11 65 5 135 -11z m-2210 0 c17 -7 16 -9 -15 -20 -50 -19 -99 -30
-99 -22 1 6 79 49 90 49 3 1 14 -3 24 -7z m531 -21 c-27 -12 -35 -12 -35 0 0
6 12 10 28 9 24 0 25 -1 7 -9z m-60 -20 c-8 -13 -45 -13 -45 0 0 6 12 10 26
10 14 0 23 -4 19 -10z m-90 -30 c-8 -13 -55 -13 -55 0 0 6 14 10 31 10 17 0
28 -4 24 -10z"/>
<path d="M3660 3390 c0 -5 5 -10 10 -10 6 0 10 5 10 10 0 6 -4 10 -10 10 -5 0
-10 -4 -10 -10z"/>
<path d="M5229 3260 c14 -44 29 -80 33 -80 10 0 10 54 1 64 -5 4 -13 26 -18
49 -6 24 -18 43 -26 45 -13 2 -11 -11 10 -78z"/>
<path d="M12524 3479 c-3 -5 9 -9 25 -9 17 0 31 4 31 9 0 5 -11 9 -25 9 -14 0
-28 -4 -31 -9z"/>
<path d="M2880 1765 c0 -9 5 -15 11 -13 6 2 11 8 11 13 0 5 -5 11 -11 13 -6 2
-11 -4 -11 -13z"/>
<path d="M3411 7541 c-6 -11 -11 -31 -11 -45 0 -14 -4 -28 -10 -31 -16 -10
-12 -35 5 -35 8 0 24 -6 35 -12 31 -20 40 0 32 72 -5 49 -11 66 -24 68 -9 2
-21 -6 -27 -17z"/>
<path d="M910 6910 c0 -5 5 -10 10 -10 6 0 10 5 10 10 0 6 -4 10 -10 10 -5 0
-10 -4 -10 -10z"/>
<path d="M26 6678 c-10 -38 -7 -68 10 -93 17 -27 54 -34 54 -11 0 7 7 19 15
26 21 18 19 34 -11 69 -30 37 -59 40 -68 9z"/>
<path d="M7435 6460 c3 -5 8 -10 11 -10 2 0 4 5 4 10 0 6 -5 10 -11 10 -5 0
-7 -4 -4 -10z"/>
<path d="M7165 6364 c-66 -14 -174 -39 -240 -55 -66 -17 -136 -33 -155 -36
-19 -2 -44 -8 -55 -13 -23 -10 -108 -30 -126 -30 -7 0 -5 8 6 20 10 11 28 20
40 20 12 0 35 11 51 25 21 18 25 25 12 25 -9 0 -18 -3 -20 -7 -6 -15 -128 -41
-156 -34 -25 7 -24 8 21 22 27 7 54 20 60 28 13 16 -36 12 -173 -14 -47 -9
-107 -20 -135 -24 -65 -12 -185 -40 -210 -51 -11 -5 -31 -11 -45 -14 -42 -8
-142 -34 -200 -50 -30 -9 -65 -16 -77 -16 -13 0 -23 -4 -23 -10 0 -5 -13 -10
-29 -10 -16 0 -58 -7 -93 -15 -35 -8 -85 -20 -113 -26 -56 -12 -110 -28 -140
-40 -11 -4 -40 -13 -63 -19 -54 -14 -306 -97 -347 -115 -16 -7 -58 -24 -91
-39 -34 -14 -66 -26 -72 -26 -5 0 -15 -7 -22 -15 -7 -8 -25 -15 -41 -15 -17 0
-28 -5 -27 -12 3 -13 -25 -24 -174 -69 -53 -16 -111 -28 -130 -27 -69 4 -128
-2 -128 -13 0 -8 15 -10 46 -5 30 4 57 1 78 -8 47 -21 157 -75 186 -91 48 -26
275 -267 445 -470 100 -119 270 -287 334 -329 61 -39 102 -56 173 -71 33 -6
193 25 373 75 93 25 449 127 565 162 184 55 233 69 475 138 215 61 297 85 350
101 17 5 86 25 155 44 69 19 148 42 175 50 28 8 75 21 105 29 115 31 277 77
335 96 33 11 103 31 155 45 108 28 125 33 420 114 118 32 303 82 410 111 260
71 331 91 485 134 72 20 147 41 168 47 20 5 37 13 37 17 0 8 -164 53 -192 52
-9 0 -38 11 -65 24 -48 23 -110 51 -148 66 -25 9 -134 59 -157 71 -10 5 -27 9
-38 9 -11 0 -20 4 -20 9 0 5 -11 11 -25 13 -14 3 -25 4 -25 2 0 -2 48 -28 108
-59 117 -60 242 -147 242 -168 0 -20 -48 -39 -112 -43 l-57 -5 9 32 c8 27 6
35 -10 46 -10 7 -26 21 -36 30 -12 12 -36 17 -89 18 -50 1 -81 6 -98 18 -15 9
-34 17 -44 17 -10 0 -28 7 -40 15 -14 10 -32 13 -48 9 -21 -5 -27 -2 -32 15
-3 12 -13 21 -24 21 -10 0 -20 4 -23 9 -3 5 -32 12 -63 16 -32 3 -82 17 -112
31 -29 13 -60 24 -67 24 -8 0 -14 5 -14 10 0 6 -16 10 -35 10 -19 0 -52 6 -72
14 -21 8 -63 20 -93 26 -30 6 -65 17 -77 25 -13 9 -33 12 -50 9 -17 -3 -50 3
-83 15 -30 12 -70 21 -89 21 -31 0 -112 16 -198 39 -31 9 -58 -2 -31 -12 15
-5 -57 -27 -89 -27 -33 0 -28 20 7 27 17 3 30 9 30 13 0 10 -184 2 -225 -10
-16 -5 -61 -11 -100 -15 -104 -9 -396 -65 -427 -81 -14 -8 -34 -11 -44 -7 -11
4 -22 0 -31 -13 -13 -18 -15 -17 -38 11 -32 39 -31 45 4 45 17 0 33 5 36 10 3
6 21 10 39 10 19 0 67 11 107 24 41 13 92 26 114 29 78 12 139 27 149 37 17
17 -71 10 -199 -16z m-645 -148 c0 -8 -85 -33 -98 -28 -24 8 21 31 61 32 20 0
37 -2 37 -4z m1200 -91 c29 -30 51 -57 47 -61 -7 -8 -127 93 -127 107 0 22 30
5 80 -46z m-1383 39 c-3 -3 -12 -4 -19 -1 -8 3 -5 6 6 6 11 1 17 -2 13 -5z
m1537 -207 l29 -42 -46 45 c-47 44 -62 70 -29 49 9 -6 30 -29 46 -52z m1226
-146 c0 -12 -63 -30 -275 -82 -173 -42 -282 -66 -345 -75 -19 -3 -44 -9 -55
-14 -26 -11 -70 -21 -125 -27 -25 -3 -52 -11 -60 -18 -8 -7 -31 -15 -50 -18
-62 -10 -114 -23 -137 -35 -12 -7 -34 -12 -48 -12 -23 0 -25 2 -11 15 8 8 24
15 35 15 11 0 30 4 43 9 13 5 52 17 88 26 36 10 97 28 137 41 39 13 80 24 92
24 11 0 23 5 26 10 3 6 22 10 41 10 21 0 33 4 29 10 -4 6 10 10 34 10 22 0 42
3 45 8 5 9 -212 17 -407 15 -77 0 -135 3 -130 7 24 22 196 41 448 50 301 11
544 26 553 34 9 10 72 7 72 -3z m-1210 -125 c0 -3 -4 -8 -10 -11 -5 -3 -10 -1
-10 4 0 6 5 11 10 11 6 0 10 -2 10 -4z m75 -166 c-3 -5 -21 -10 -39 -10 -17 0
-36 -4 -42 -10 -5 -5 -23 -12 -39 -14 -17 -2 -43 -8 -60 -14 -86 -28 -116 -34
-139 -28 -43 11 -31 29 14 21 26 -4 40 -3 40 4 0 6 -7 11 -15 11 -8 0 -15 4
-15 8 0 5 23 4 50 -2 42 -8 55 -7 79 7 16 9 41 17 54 17 14 0 29 5 32 10 3 6
24 10 46 10 24 0 38 -4 34 -10z m-195 -4 c0 -3 -4 -8 -10 -11 -5 -3 -10 -1
-10 4 0 6 5 11 10 11 6 0 10 -2 10 -4z m-160 -86 c11 -7 4 -10 -25 -10 -29 0
-36 3 -25 10 8 5 20 10 25 10 6 0 17 -5 25 -10z m-160 -4 c0 -3 -4 -8 -10 -11
-5 -3 -10 -1 -10 4 0 6 5 11 10 11 6 0 10 -2 10 -4z m80 -26 c-20 -13 -57 -13
-65 0 -4 6 11 10 37 10 31 0 39 -3 28 -10z m-100 -20 c12 -8 9 -10 -12 -10
-16 0 -28 5 -28 10 0 13 20 13 40 0z m-60 -20 c0 -5 -4 -10 -10 -10 -5 0 -10
5 -10 10 0 6 5 10 10 10 6 0 10 -4 10 -10z m-90 -26 c0 -9 -11 -14 -28 -14
-16 0 -55 -9 -88 -20 -32 -11 -78 -20 -100 -20 -28 0 -44 -5 -48 -15 -7 -19
-46 -19 -71 -1 -17 12 -17 13 9 20 15 4 32 4 38 0 7 -4 8 -3 4 4 -10 16 63 28
85 14 12 -8 20 -8 24 -2 3 6 -1 10 -9 10 -9 0 -16 5 -16 11 0 8 19 9 60 4 41
-5 60 -4 60 4 0 6 -10 11 -22 12 -23 1 -23 1 1 8 37 10 101 1 101 -15z m-852
-97 c2 -10 -3 -17 -12 -17 -10 0 -16 9 -16 21 0 24 23 21 28 -4z m492 13 c0
-5 -14 -10 -31 -10 -17 0 -28 4 -24 10 3 6 17 10 31 10 13 0 24 -4 24 -10z
m-84 -29 c-3 -5 -18 -8 -33 -8 -15 0 -29 -5 -31 -11 -2 -6 -20 -14 -39 -18
-20 -4 -48 -13 -62 -20 -14 -8 -35 -14 -46 -14 -11 0 -42 -12 -70 -25 -27 -14
-56 -25 -63 -25 -7 0 -74 -21 -148 -46 -137 -46 -210 -57 -99 -14 53 20 300
108 395 141 19 7 42 14 50 17 79 28 156 40 146 23z m-696 -231 c-20 -13 -33
-13 -25 0 3 6 14 10 23 10 15 0 15 -2 2 -10z"/>
<path d="M6652 6348 c6 -18 28 -21 28 -4 0 9 -7 16 -16 16 -9 0 -14 -5 -12
-12z"/>
<path d="M6808 6333 c7 -3 16 -2 19 1 4 3 -2 6 -13 5 -11 0 -14 -3 -6 -6z"/>
<path d="M9303 5915 c0 -18 19 -15 25 3 2 7 -3 12 -10 12 -8 0 -15 -7 -15 -15z"/>
<path d="M11788 5582 c-52 -56 -128 -196 -114 -210 6 -6 66 90 66 106 0 6 4
12 8 12 10 0 76 109 70 115 -2 3 -16 -8 -30 -23z"/>
<path d="M4445 5580 c-4 -6 -15 -10 -26 -10 -30 0 -22 -18 11 -25 17 -4 30
-11 30 -17 0 -13 49 -56 73 -64 9 -3 17 -10 17 -16 0 -6 31 -43 69 -82 38 -39
92 -96 120 -126 44 -48 51 -52 51 -32 0 22 1 22 16 7 13 -12 14 -19 5 -28 -6
-6 -11 -18 -11 -26 0 -12 6 -9 19 8 11 14 23 21 30 17 9 -6 9 -11 0 -22 -9
-11 -8 -14 6 -14 18 0 75 -52 75 -69 0 -6 9 -15 20 -21 11 -6 20 -15 20 -20 0
-5 21 -29 47 -52 25 -24 58 -60 73 -80 15 -21 30 -34 34 -31 3 3 6 -1 6 -10 0
-9 7 -17 15 -17 8 0 15 -4 15 -10 0 -15 -16 -12 -34 6 -15 14 -16 14 -16 -5 0
-12 6 -21 16 -21 11 0 14 -6 9 -21 -4 -13 0 -27 11 -40 22 -25 5 -50 -20 -30
-14 12 -14 10 -1 -16 8 -15 23 -38 35 -50 19 -21 27 -63 14 -76 -9 -8 -54 34
-54 50 0 15 -63 122 -87 148 -16 18 -87 116 -235 325 -25 36 -54 75 -64 88
-11 12 -30 37 -44 54 -29 37 -153 164 -190 194 -44 35 -118 84 -128 84 -5 0
-15 7 -22 15 -7 8 -25 15 -41 15 -16 0 -29 4 -29 8 0 7 -81 9 -110 3 -3 -1 24
-12 60 -25 197 -70 311 -174 599 -551 67 -88 128 -167 135 -175 6 -9 26 -36
43 -60 17 -25 40 -54 52 -64 11 -11 21 -25 21 -33 0 -7 4 -13 8 -13 13 0 44
-59 37 -71 -5 -7 -16 -2 -32 13 -27 25 -144 178 -189 248 -16 24 -41 58 -56
75 -14 16 -64 77 -109 135 -192 244 -345 381 -479 430 -77 28 -227 28 -324 -1
-117 -35 -278 -124 -388 -215 -81 -67 -268 -266 -324 -344 -83 -114 -133 -253
-115 -317 29 -104 191 -203 333 -203 56 0 57 16 2 26 -20 4 -57 15 -82 24 -54
21 -54 16 -28 165 9 55 19 115 22 133 3 17 1 32 -4 32 -12 0 -22 -25 -22 -55
0 -12 -6 -38 -14 -56 -8 -19 -20 -67 -27 -106 -7 -40 -17 -73 -22 -73 -19 0
-77 72 -87 108 -14 52 -13 65 13 150 19 66 34 89 127 204 58 71 119 146 135
166 17 21 52 56 78 77 27 22 54 45 60 51 23 20 206 134 217 134 6 0 22 7 36
16 28 19 56 6 37 -18 -5 -7 -11 -35 -12 -61 -1 -27 -6 -60 -11 -73 -6 -14 -10
-49 -10 -78 0 -29 -5 -78 -10 -107 -15 -74 -14 -591 0 -635 21 -62 50 -39 50
40 0 49 44 121 84 136 13 5 27 14 31 20 8 13 191 101 279 134 36 14 96 32 132
42 73 18 119 11 176 -29 47 -31 188 -195 188 -218 0 -34 -25 -18 -87 56 -32
38 -78 84 -103 103 -38 30 -50 33 -85 29 -51 -7 -257 -75 -354 -116 -40 -17
-77 -31 -83 -31 -23 0 -118 -55 -124 -72 -3 -10 3 -33 15 -52 12 -18 21 -41
21 -50 0 -9 3 -15 8 -15 4 1 16 0 27 -1 14 -2 12 -4 -10 -9 -40 -10 -45 -6
-45 35 0 42 -18 42 -38 0 -12 -24 -12 -30 4 -47 9 -10 12 -19 7 -19 -13 0 -54
-66 -46 -74 4 -3 15 -6 25 -6 10 0 29 -6 41 -14 24 -16 114 -21 192 -10 28 3
75 6 106 6 49 0 56 2 52 18 -6 22 22 34 47 20 24 -13 61 -14 41 -1 -21 14 17
24 119 32 8 0 39 10 69 20 29 11 70 20 90 21 20 1 38 5 41 9 5 7 26 8 135 8
35 1 75 -24 75 -45 0 -12 -6 -15 -25 -10 -16 4 -25 2 -25 -5 0 -7 -10 -22 -22
-34 -47 -48 -59 -69 -34 -59 19 7 30 -14 17 -30 -8 -10 -7 -17 5 -27 13 -10
17 -10 24 1 5 8 5 21 0 30 -21 39 35 124 68 104 26 -17 26 -34 -1 -34 -37 0
-53 -24 -34 -52 28 -39 44 -58 50 -58 3 0 29 -14 57 -30 28 -16 57 -30 64 -30
8 0 19 -7 27 -16 7 -9 21 -13 33 -10 11 3 27 0 35 -7 9 -8 49 -12 112 -11 92
0 99 2 132 30 33 27 50 74 27 74 -5 0 -10 7 -10 15 0 9 -6 18 -14 21 -15 6
-40 63 -31 72 7 8 37 -7 31 -16 -3 -5 2 -19 11 -31 12 -18 17 -20 25 -10 7 10
8 8 3 -8 -3 -12 -1 -24 5 -28 5 -3 10 -15 10 -26 0 -12 7 -19 20 -19 11 0 20
7 20 15 0 8 5 15 11 15 7 0 9 -11 6 -30 -7 -31 3 -32 49 -3 11 7 24 10 29 6 4
-5 5 -2 1 5 -4 7 -12 10 -17 7 -5 -4 -9 -1 -9 5 0 6 15 10 33 8 21 -1 45 6 64
20 17 12 40 22 51 22 27 0 55 55 47 92 -5 19 -15 30 -31 34 -13 3 -24 12 -24
20 0 13 -13 17 -50 16 -35 -1 -190 -26 -245 -39 -76 -19 -196 -34 -207 -27 -5
4 -7 13 -4 21 3 8 1 23 -4 34 -9 15 -7 20 7 25 10 3 29 11 43 18 14 8 31 11
38 9 7 -3 12 4 12 17 0 19 2 20 15 10 14 -12 29 -11 68 5 23 10 23 -21 0 -34
-10 -5 -15 -12 -12 -15 7 -8 234 110 232 120 -1 5 -5 17 -9 27 -5 13 -1 20 15
24 13 3 21 13 21 26 0 16 3 18 12 9 17 -17 38 -15 38 3 0 8 4 15 8 15 5 0 9 7
9 15 0 9 -6 14 -14 11 -7 -3 -13 -1 -13 4 0 6 5 10 12 10 8 0 9 3 2 10 -5 5
-50 11 -99 14 -100 5 -158 20 -243 66 -66 35 -93 58 -217 181 -116 115 -141
141 -201 214 -27 33 -51 62 -54 65 -3 3 -39 43 -80 90 -165 188 -279 284 -299
251 -6 -9 -10 -9 -20 3 -9 11 -9 15 1 18 8 3 6 6 -5 11 -9 3 -19 2 -22 -3z
m-391 -145 c-4 -8 -10 -15 -15 -15 -5 0 -9 7 -9 15 0 8 7 15 15 15 9 0 12 -6
9 -15z m-89 -15 c-3 -5 -11 -10 -16 -10 -6 0 -7 5 -4 10 3 6 11 10 16 10 6 0
7 -4 4 -10z m593 -346 c8 -6 8 -65 0 -70 -4 -3 -8 2 -8 10 0 9 -11 23 -25 32
-35 23 -33 46 3 38 15 -4 29 -8 30 -10z m-161 -20 c-3 -3 -12 -4 -19 -1 -8 3
-5 6 6 6 11 1 17 -2 13 -5z m13 -33 c0 -6 -5 -13 -10 -16 -15 -9 -43 3 -35 15
8 13 45 13 45 1z m-393 -193 c-3 -8 -6 -5 -6 6 -1 11 2 17 5 13 3 -3 4 -12 1
-19z m11 -80 c0 -28 5 -54 12 -58 8 -5 7 -9 -4 -13 -21 -8 -23 -2 -25 72 -2
41 1 61 8 57 5 -4 10 -29 9 -58z m1150 -30 c-2 -6 -10 -14 -16 -16 -7 -2 -10
2 -6 12 7 18 28 22 22 4z m342 -70 c0 -16 -3 -19 -11 -11 -6 6 -8 16 -5 22 11
17 16 13 16 -11z m90 -9 c0 -5 -4 -9 -10 -9 -5 0 -10 7 -10 16 0 8 5 12 10 9
6 -3 10 -10 10 -16z m-370 1 c0 -5 -7 -10 -16 -10 -8 0 -12 5 -9 10 3 6 10 10
16 10 5 0 9 -4 9 -10z m325 -69 c-7 -6 -35 27 -35 41 0 7 9 2 20 -12 10 -14
17 -26 15 -29z m-367 -18 c-4 -22 -22 -20 -26 1 -2 10 3 16 13 16 10 0 15 -7
13 -17z m-58 -64 c0 -16 -21 -9 -41 14 -28 33 -23 41 11 17 17 -12 30 -26 30
-31z m100 41 c0 -5 -4 -10 -10 -10 -5 0 -10 5 -10 10 0 6 5 10 10 10 6 0 10
-4 10 -10z m-205 -30 c8 -16 15 -31 15 -35 0 -10 -71 -5 -93 7 -12 7 -32 11
-45 9 -13 -1 -33 4 -46 12 -12 8 -33 17 -47 20 -13 3 3 4 36 1 33 -2 67 0 75
6 8 5 32 10 52 10 31 0 40 -5 53 -30z m-600 -30 c-3 -5 -12 -10 -18 -10 -7 0
-6 4 3 10 19 12 23 12 15 0z m829 -18 c-15 -29 -61 -55 -70 -41 -4 6 -23 8
-47 3 -38 -6 -40 -5 -28 10 7 9 19 16 27 16 7 0 18 9 24 20 9 17 19 20 59 18
46 -3 47 -4 35 -26z m186 8 c0 -5 -5 -10 -11 -10 -5 0 -7 5 -4 10 3 6 8 10 11
10 2 0 4 -4 4 -10z m-1277 -47 c-7 -2 -19 -2 -25 0 -7 3 -2 5 12 5 14 0 19 -2
13 -5z m990 -127 c10 -3 24 -20 30 -36 6 -17 15 -30 19 -30 4 0 8 -9 8 -21 0
-12 8 -23 20 -26 11 -3 20 -9 20 -13 0 -4 11 -12 25 -18 26 -12 35 -52 12 -52
-19 0 -157 136 -157 155 0 9 -7 18 -15 21 -8 4 -15 15 -15 25 0 15 4 17 18 10
9 -5 25 -12 35 -15z"/>
<path d="M11875 5480 c-18 -20 -29 -110 -13 -110 4 0 8 13 8 29 0 15 9 39 19
53 25 31 13 57 -14 28z"/>
<path d="M11796 5368 c-2 -7 -9 -31 -16 -54 -12 -41 -7 -84 10 -84 21 0 40 47
40 97 0 41 -3 53 -15 53 -9 0 -17 -6 -19 -12z"/>
<path d="M3833 5333 c-18 -7 -16 -20 2 -20 8 0 15 6 15 14 0 7 -1 13 -2 12 -2
0 -9 -3 -15 -6z"/>
<path d="M3796 5161 c-3 -5 1 -14 9 -21 13 -10 15 -9 15 9 0 21 -14 28 -24 12z"/>
<path d="M11760 5126 c0 -9 7 -16 16 -16 17 0 14 22 -4 28 -7 2 -12 -3 -12
-12z"/>
<path d="M3801 5104 c0 -11 3 -14 6 -6 3 7 2 16 -1 19 -3 4 -6 -2 -5 -13z"/>
<path d="M11328 4909 c-377 -59 -935 -230 -1498 -457 -89 -36 -344 -163 -348
-174 -2 -4 -8 -8 -14 -8 -6 0 -46 -22 -89 -50 -75 -48 -78 -49 -106 -35 -15 8
-34 15 -40 15 -7 0 -13 5 -13 10 0 6 9 10 19 10 11 0 23 -4 26 -10 3 -5 14
-10 23 -10 15 0 15 2 2 10 -12 8 -10 10 10 11 14 0 39 9 55 20 17 10 37 21 45
25 59 23 81 51 35 47 -38 -4 -310 -13 -354 -13 -37 1 -43 -2 -37 -16 5 -14 1
-15 -31 -11 -74 11 -159 26 -243 42 -263 49 -642 60 -1051 29 -118 -9 -230
-16 -249 -17 -30 -1 -127 38 -212 84 -10 5 -30 9 -45 9 -25 0 -23 -3 17 -21
128 -57 160 -73 160 -80 0 -7 -42 -18 -70 -17 -8 0 -53 -5 -100 -11 -81 -11
-87 -10 -135 13 -73 35 -166 64 -264 81 -96 16 -102 16 -261 -39 -52 -18 -141
-48 -197 -66 -57 -18 -103 -35 -103 -39 0 -3 -20 -14 -44 -24 -23 -10 -53 -27
-65 -38 -29 -27 -139 -85 -176 -92 -77 -15 -123 -27 -155 -41 l-35 -15 52 1
c28 0 66 -3 85 -7 35 -8 81 -39 72 -48 -3 -3 4 -10 15 -17 22 -11 28 -1 10 17
-23 23 20 21 45 -2 21 -19 27 -21 37 -9 12 15 45 19 52 6 7 -10 -24 -46 -50
-60 -16 -9 -23 -9 -26 1 -3 6 -5 3 -4 -9 1 -14 15 -29 47 -45 25 -13 66 -38
91 -56 26 -18 49 -33 53 -33 3 0 23 -18 44 -41 20 -22 54 -57 76 -77 35 -34
103 -123 133 -175 6 -11 15 -22 20 -26 14 -11 68 -94 91 -143 13 -26 28 -50
33 -53 8 -6 34 -59 101 -205 11 -25 24 -52 29 -60 4 -8 17 -32 28 -52 11 -20
42 -59 69 -86 37 -38 53 -64 67 -109 23 -76 45 -108 71 -99 24 8 94 102 94
126 0 10 7 23 15 30 8 7 15 18 15 24 0 7 11 23 25 36 14 13 25 31 25 41 0 9 7
19 15 23 8 3 15 12 15 21 0 8 9 15 20 15 14 0 20 -7 20 -22 0 -13 12 -48 26
-78 120 -256 190 -336 339 -383 122 -38 176 -48 210 -37 18 6 37 10 41 9 5 -1
52 2 104 6 107 10 122 9 133 -11 9 -17 37 -7 37 13 0 10 -6 13 -16 9 -9 -3
-12 -2 -9 5 4 6 13 8 20 5 7 -2 37 2 67 9 29 8 82 16 118 19 36 3 94 12 130
20 36 9 101 19 145 22 44 4 85 10 91 15 5 5 30 8 55 8 48 -1 144 14 172 26 9
4 23 2 31 -4 7 -6 16 -8 19 -5 3 4 46 13 94 21 48 8 97 16 108 18 48 11 143
35 175 44 70 19 80 23 80 32 0 5 10 9 23 9 29 0 147 56 147 70 0 5 18 8 39 5
24 -2 47 2 58 10 10 8 25 15 34 15 9 0 30 7 45 15 16 8 47 15 69 15 23 0 46 5
53 12 13 13 26 16 82 23 19 2 36 9 38 14 2 6 14 8 27 5 12 -3 26 -1 29 5 4 6
16 11 27 11 10 0 19 5 19 10 0 6 26 10 58 10 35 0 52 4 43 9 -17 11 -3 18 29
15 14 -1 31 3 38 9 7 5 41 15 75 21 48 9 61 15 59 28 -2 13 8 16 64 14 46 -1
69 3 71 12 3 6 15 12 27 12 13 0 26 3 30 8 4 4 13 7 19 7 7 0 12 5 12 12 0 19
12 24 24 9 10 -12 17 -11 54 1 23 8 49 22 57 32 17 21 81 54 88 46 3 -3 0 -5
-6 -5 -7 0 -12 -5 -12 -11 0 -14 21 -9 115 25 39 14 78 25 88 26 20 0 22 11 5
28 -9 9 -7 12 9 12 12 0 24 -4 27 -9 7 -10 56 -2 56 10 0 5 -4 9 -10 9 -5 0
-10 5 -10 10 0 14 27 13 32 -1 2 -7 13 -9 27 -4 15 4 20 12 17 22 -5 12 0 14
26 10 18 -3 42 -2 53 3 19 8 19 9 -3 9 -13 1 -20 5 -17 11 4 6 23 7 46 4 24
-4 39 -3 39 4 0 6 -3 12 -7 15 -5 2 -2 2 6 0 7 -2 19 5 26 14 8 10 17 14 21
10 5 -4 2 -12 -6 -17 -12 -8 -10 -10 7 -10 25 0 39 16 21 24 -7 3 0 2 16 -1
25 -5 28 -3 23 11 -4 11 -1 19 11 22 9 3 25 10 34 15 10 5 32 9 48 9 17 0 29
4 26 9 -8 12 18 21 43 14 17 -4 20 -2 14 12 -5 15 -2 17 16 12 38 -10 191 50
169 66 -9 6 -5 7 11 3 16 -3 40 4 68 20 23 14 43 23 43 19 0 -4 25 7 56 25 31
17 65 33 76 35 45 9 47 18 46 203 l0 175 -42 -45 c-60 -66 -134 -109 -359
-212 -43 -20 -83 -36 -88 -36 -5 0 -17 -4 -27 -9 -48 -27 -530 -201 -555 -201
-8 0 -17 -3 -19 -7 -1 -5 -57 -26 -123 -47 -66 -21 -151 -50 -188 -63 -38 -12
-79 -23 -92 -23 -13 0 -25 -3 -27 -7 -4 -11 -101 -43 -126 -43 -12 0 -24 -4
-27 -10 -3 -5 -19 -10 -35 -10 -16 0 -31 -4 -35 -9 -3 -5 -20 -13 -38 -16 -17
-4 -78 -22 -133 -41 -105 -35 -134 -40 -134 -25 0 11 25 21 56 21 13 0 24 5
24 10 0 6 11 10 24 10 22 0 82 20 116 39 9 5 31 12 50 15 36 7 72 19 125 42
33 14 82 27 105 29 18 1 50 13 70 26 19 11 25 14 80 30 25 7 50 15 55 18 6 3
20 7 33 9 12 1 35 8 50 14 56 23 157 59 169 60 7 1 10 5 7 10 -3 4 0 8 6 8 6
0 8 5 4 11 -3 6 -9 7 -13 2 -6 -9 -63 -28 -111 -37 -14 -2 -43 -10 -65 -16
-22 -6 -78 -20 -125 -30 -47 -10 -102 -26 -122 -34 -49 -21 -108 -21 -108 -1
0 8 8 16 18 16 9 1 4 4 -13 8 -16 4 -32 4 -35 0 -3 -3 -22 -12 -43 -18 -45
-15 -39 -34 9 -25 22 4 34 2 34 -5 0 -6 -10 -11 -23 -11 -13 0 -28 -5 -34 -11
-8 -8 -27 -9 -60 -4 -55 9 -94 7 -107 -6 -6 -5 -30 -9 -54 -9 -50 0 -55 -23
-6 -28 29 -4 29 -4 -11 -18 -52 -18 -93 -19 -50 0 52 22 9 29 -64 10 -83 -21
-134 -10 -61 13 57 19 204 61 250 73 75 19 217 59 260 74 150 51 199 66 218
66 11 0 24 5 27 10 3 6 13 10 22 10 8 0 29 6 46 14 53 23 117 40 124 33 3 -4
-8 -10 -25 -13 -17 -3 -33 -12 -36 -20 -3 -8 -17 -14 -31 -14 -14 0 -25 -4
-25 -9 0 -5 -15 -12 -32 -16 -18 -4 -27 -9 -21 -12 14 -5 155 42 189 62 11 8
34 15 50 17 l29 4 -25 11 c-23 11 -23 12 -4 12 12 1 27 7 34 15 6 8 18 12 27
9 12 -5 12 -7 1 -14 -7 -5 -8 -9 -2 -9 5 0 19 7 30 15 10 8 29 15 41 15 12 0
25 5 28 10 4 6 10 8 15 5 4 -3 10 2 14 10 3 10 19 15 43 15 23 0 59 12 91 29
29 16 66 32 82 36 17 4 30 11 30 16 0 5 13 9 29 9 17 0 32 4 35 9 3 5 26 12
51 15 25 4 43 11 40 17 -4 5 3 9 14 9 22 0 206 86 256 120 17 11 38 20 47 20
10 0 42 24 71 53 58 57 73 92 117 280 44 191 19 255 -164 415 -33 29 -67 52
-75 52 -13 0 -76 26 -121 49 -8 5 -17 16 -19 26 -2 10 -13 27 -25 36 -18 16
-40 18 -146 18 -69 -1 -177 -9 -242 -20z m382 -29 c21 -13 6 -24 -70 -49 -36
-12 -74 -25 -85 -30 -88 -38 -193 -77 -390 -142 -66 -22 -149 -50 -185 -63
-36 -13 -84 -29 -108 -37 -46 -14 -57 -26 -71 -86 -9 -34 -9 -33 -6 21 2 32 7
62 12 65 4 4 73 29 153 55 80 27 159 54 175 60 37 16 59 23 265 93 186 62 203
70 197 86 -2 7 14 17 37 23 54 15 59 15 76 4z m-220 -20 c-164 -27 -316 -59
-435 -92 -38 -11 -86 -24 -105 -28 -19 -4 -70 -18 -114 -29 -43 -12 -86 -20
-95 -18 -14 3 -14 5 -1 9 41 16 350 102 385 109 22 4 85 16 140 27 115 24 151
29 220 29 l50 0 -45 -7z m240 -91 c0 -14 -7 -19 -25 -19 -25 0 -25 1 -9 25 18
27 34 25 34 -6z m-105 1 c-3 -5 -13 -10 -21 -10 -8 0 -14 5 -14 10 0 6 9 10
21 10 11 0 17 -4 14 -10z m145 -86 c0 -12 -35 -33 -55 -33 -19 0 -19 1 4 19
22 19 51 27 51 14z m-1090 -21 c-53 -23 -120 -42 -120 -34 0 5 17 15 38 24 53
22 64 25 92 25 22 0 21 -1 -10 -15z m60 -47 c0 -11 -11 -14 -41 -13 l-42 1 29
13 c39 16 54 16 54 -1z m870 4 c0 -18 -49 -35 -62 -22 -9 9 -5 14 13 21 32 13
49 13 49 1z m-1214 -35 c-11 -8 -27 -15 -36 -15 -9 0 -20 -3 -23 -7 -4 -4 -35
-16 -70 -28 -102 -36 -160 -58 -192 -70 -16 -7 -48 -19 -70 -26 -22 -8 -42
-16 -45 -19 -6 -6 -65 -29 -95 -37 -42 -12 2 14 70 41 64 26 103 42 160 66 37
15 104 39 167 60 35 11 72 25 83 30 51 23 78 25 51 5z m184 -3 c0 -5 -7 -9
-15 -9 -8 0 -12 4 -9 9 3 4 9 8 15 8 5 0 9 -4 9 -8z m75 -3 c-4 -5 7 -38 24
-72 17 -34 33 -78 37 -97 5 -34 5 -34 -28 17 -37 58 -71 114 -76 126 -2 4 3 7
12 7 9 0 16 7 16 15 0 8 5 15 11 15 5 0 7 -5 4 -11z m1149 -23 c-3 -9 -26 -25
-51 -36 -51 -23 -63 -24 -63 -10 0 6 7 10 15 10 16 0 60 25 84 48 16 16 24 11
15 -12z m-1268 -11 c-3 -9 -11 -13 -16 -10 -8 5 -7 11 1 21 14 18 24 11 15
-11z m56 -140 c40 -30 84 -64 98 -75 14 -11 33 -20 43 -20 17 0 22 -11 11 -23
-7 -7 -67 23 -72 36 -2 4 -8 7 -14 7 -6 0 -38 24 -72 53 -34 30 -70 59 -81 65
-16 9 -17 11 -3 12 9 0 49 -25 90 -55z m-117 35 c-3 -5 -15 -10 -26 -10 -10 0
-27 -4 -37 -10 -14 -8 -240 -78 -357 -110 -16 -5 -63 -18 -103 -30 -40 -12
-78 -19 -85 -17 -14 6 -22 3 153 57 74 23 146 45 160 50 14 4 59 18 100 30 41
11 91 27 110 35 42 16 94 19 85 5z m-640 -70 c-3 -5 -14 -10 -23 -10 -15 0
-15 2 -2 10 20 13 33 13 25 0z m2174 -11 c51 -1 53 -2 26 -11 -21 -7 -51 -5
-105 6 -54 11 -61 14 -26 11 27 -3 74 -5 105 -6z m-2224 -9 c-3 -5 -12 -10
-18 -10 -7 0 -6 4 3 10 19 12 23 12 15 0z m-48 -26 c-3 -3 -12 -4 -19 -1 -8 3
-5 6 6 6 11 1 17 -2 13 -5z m-62 -24 c-3 -5 -12 -10 -18 -10 -7 0 -6 4 3 10
19 12 23 12 15 0z m-1189 -14 c67 -7 127 -17 134 -21 7 -4 35 -11 64 -16 39
-6 31 -7 -34 -3 -265 17 -371 18 -470 7 -161 -20 -311 -23 -355 -7 -39 13 -79
11 -290 -16 -133 -16 -195 -31 -195 -47 0 -7 -9 -13 -21 -13 -14 0 -19 5 -16
14 8 19 -12 25 -44 14 -14 -5 -65 -13 -115 -19 -49 -5 -111 -12 -138 -16 -27
-3 -70 -18 -97 -34 -27 -16 -51 -24 -54 -19 -4 6 -16 10 -27 10 -20 0 -20 1
-3 20 10 11 34 22 54 25 20 4 68 13 106 20 39 8 115 22 170 30 55 9 123 20
150 26 73 13 378 38 543 43 79 2 146 6 148 8 11 11 384 7 490 -6z m627 -33
c-7 -2 -21 -2 -30 0 -10 3 -4 5 12 5 17 0 24 -2 18 -5z m732 -3 c-3 -5 -18
-10 -33 -10 -21 0 -24 2 -12 10 20 13 53 13 45 0z m-3008 -16 c-3 -3 -12 -4
-19 -1 -8 3 -5 6 6 6 11 1 17 -2 13 -5z m2358 -4 c4 -6 -5 -10 -19 -10 -14 0
-26 5 -26 10 0 6 9 10 19 10 11 0 23 -4 26 -10z m575 0 c0 -5 -15 -10 -32 -9
-31 1 -32 1 -8 9 35 11 40 11 40 0z m-95 -30 c-11 -5 -27 -9 -35 -9 -13 -1
-13 0 0 9 8 5 24 9 35 9 l20 0 -20 -9z m2385 -20 c-11 -21 -58 -60 -71 -60
-17 0 -9 18 26 54 36 38 64 42 45 6z m-3105 10 c-3 -5 -12 -10 -18 -10 -7 0
-33 -18 -57 -40 -25 -22 -48 -40 -52 -40 -4 0 -13 -6 -20 -13 -7 -6 -30 -21
-50 -32 -21 -11 -38 -23 -38 -27 0 -5 -9 -8 -19 -8 -10 0 -21 -6 -24 -12 -2
-7 -24 -18 -48 -25 -105 -29 -173 -43 -209 -43 -21 0 -41 -4 -44 -8 -3 -5 -35
-9 -71 -10 -40 -1 -75 -8 -88 -17 -15 -11 -35 -13 -75 -8 -39 4 -56 2 -62 -7
-4 -7 -14 -10 -21 -8 -24 8 26 28 98 38 142 21 282 47 329 61 17 5 44 9 60 9
35 0 81 16 151 52 46 24 77 43 207 135 32 23 62 30 51 13z m78 3 c-7 -2 -19
-2 -25 0 -7 3 -2 5 12 5 14 0 19 -2 13 -5z m82 -23 c3 -5 -3 -10 -14 -10 -12
0 -21 5 -21 10 0 6 6 10 14 10 8 0 18 -4 21 -10z m369 -5 c3 -9 0 -15 -9 -15
-8 0 -15 7 -15 15 0 8 4 15 9 15 5 0 11 -7 15 -15z m103 9 c-3 -3 -12 -4 -19
-1 -8 3 -5 6 6 6 11 1 17 -2 13 -5z m-2175 -36 c29 -20 31 -21 44 -3 11 15 15
15 27 3 32 -32 44 -70 35 -111 -5 -25 -5 -51 1 -68 7 -21 6 -31 -4 -39 -21
-18 -8 -40 18 -31 27 11 196 -4 209 -17 13 -13 -44 -30 -142 -42 -41 -5 -92
-12 -112 -16 -26 -4 -38 -3 -38 5 0 6 5 11 10 11 6 0 10 5 10 10 0 6 -9 10
-19 10 -11 0 -23 5 -26 10 -3 6 -21 10 -40 10 -43 0 -48 9 -29 55 14 34 14 36
-3 33 -10 -2 -19 -13 -21 -25 -2 -12 -10 -27 -18 -34 -13 -11 -22 -5 -55 31
-33 36 -39 49 -34 70 3 14 9 37 12 53 6 33 10 33 39 6 20 -19 26 -20 58 -8 20
7 43 23 51 35 13 20 12 24 -10 38 -14 9 -25 21 -25 26 0 17 30 11 62 -12z
m1823 6 c19 -3 35 -9 35 -13 0 -4 -20 -27 -45 -51 -51 -50 -124 -152 -176
-245 -18 -33 -36 -62 -39 -65 -14 -12 -77 -153 -82 -184 -2 -11 -7 -19 -13
-18 -13 2 -19 82 -7 82 11 0 27 56 31 109 1 11 4 11 18 0 15 -12 16 -12 10 3
-4 12 0 21 14 29 16 8 18 14 10 22 -6 6 -11 18 -11 27 0 12 2 13 9 1 5 -7 14
-10 20 -7 6 4 8 12 5 18 -4 6 1 17 12 25 16 11 17 17 6 33 -8 13 -9 20 -1 20
6 0 8 9 4 23 -4 16 -1 14 11 -7 l17 -30 24 47 c24 49 56 87 72 87 14 0 20 38
7 44 -6 2 1 5 17 5 29 1 30 2 21 25 -4 10 -18 16 -40 16 -19 0 -34 5 -34 11 0
7 12 9 35 5 19 -3 51 -9 70 -12z m-1905 -13 c0 -3 -4 -12 -9 -20 -7 -11 -11
-10 -20 7 -15 28 -14 31 9 25 11 -3 20 -8 20 -12z m-716 -69 c20 -27 8 -22
-31 12 -13 11 -23 23 -23 28 0 13 33 -11 54 -40z m5386 21 c-1 -13 -77 -63
-97 -63 -14 0 -12 5 12 25 17 13 36 24 43 25 6 0 12 5 12 10 0 6 7 10 15 10 8
0 15 -3 15 -7z m-5092 -25 c16 -16 15 -38 -1 -38 -18 0 -49 34 -40 43 10 11
28 8 41 -5z m-218 -60 c0 -5 7 -8 15 -8 8 0 15 -4 15 -9 0 -5 15 -18 33 -30
22 -14 26 -21 15 -21 -10 0 -18 4 -18 8 0 5 -12 15 -27 23 -33 17 -83 61 -83
72 0 10 49 -25 50 -35z m5185 5 c-11 -3 -24 -11 -28 -19 -9 -16 -47 -19 -47
-4 0 6 9 10 19 10 11 0 23 5 26 10 3 6 16 9 28 9 20 -1 21 -2 2 -6z m-4925
-85 c3 -4 18 -5 33 -4 24 3 27 0 27 -26 0 -20 6 -31 23 -38 21 -8 21 -9 -5 -9
-33 -1 -228 130 -228 154 0 6 142 -66 150 -77z m33 68 c22 -17 22 -26 -2 -26
-21 0 -45 23 -34 33 9 10 15 8 36 -7z m2097 -1 c0 -8 -7 -15 -15 -15 -8 0 -15
7 -15 15 0 8 7 15 15 15 8 0 15 -7 15 -15z m-1020 -25 c0 -5 -9 -10 -20 -10
-11 0 -20 5 -20 10 0 6 9 10 20 10 11 0 20 -4 20 -10z m47 4 c-3 -3 -12 -4
-19 -1 -8 3 -5 6 6 6 11 1 17 -2 13 -5z m-117 -13 c0 -14 -22 -26 -42 -23 -10
2 -25 -1 -35 -7 -11 -5 -24 -6 -34 0 -12 6 -21 4 -29 -6 -17 -21 -66 -19 -74
2 -8 20 12 35 39 29 11 -2 45 0 75 4 82 11 100 11 100 1z m-1661 -91 c23 -22
45 -40 50 -40 4 0 22 -20 40 -44 18 -24 44 -49 58 -55 13 -6 22 -15 19 -20 -3
-4 7 -14 22 -21 15 -7 34 -16 42 -20 8 -4 17 -15 19 -25 5 -26 37 -59 46 -46
4 7 20 3 48 -12 70 -38 73 -45 19 -50 -86 -9 -104 -6 -109 14 -3 10 -9 19 -14
19 -5 0 -9 10 -9 23 -1 24 -23 60 -33 51 -3 -3 -11 5 -18 18 -6 12 -29 38 -50
56 -22 19 -39 40 -39 48 0 8 -6 14 -13 14 -13 0 -67 46 -67 58 0 4 -16 18 -35
31 -33 22 -45 41 -27 41 5 0 28 -18 51 -40z m541 -2 c0 -12 -8 -10 -35 8 -14
9 -22 20 -19 25 5 9 53 -20 54 -33z m226 33 c5 -5 35 -16 67 -25 36 -11 57
-22 54 -29 -2 -7 -13 -11 -23 -9 -27 4 -134 56 -134 65 0 10 24 9 36 -2z m879
-11 c-3 -5 -12 -10 -20 -10 -8 0 -17 5 -20 10 -4 6 5 10 20 10 15 0 24 -4 20
-10z m60 0 c-3 -5 -15 -10 -26 -10 -11 0 -17 5 -14 10 3 6 15 10 26 10 11 0
17 -4 14 -10z m-125 -20 c-20 -13 -70 -13 -70 0 0 6 19 10 43 10 31 0 38 -3
27 -10z m-982 -35 c15 -14 33 -25 40 -25 7 0 15 -7 18 -15 4 -8 20 -16 38 -16
25 -1 26 -3 8 -6 -26 -5 -82 14 -82 28 0 5 -5 9 -11 9 -16 0 -59 36 -52 44 9
9 12 8 41 -19z m902 15 c0 -5 -5 -10 -11 -10 -5 0 -7 5 -4 10 3 6 8 10 11 10
2 0 4 -4 4 -10z m-436 -6 c33 -13 14 -24 -38 -24 -81 0 -84 25 -4 29 14 0 33
-2 42 -5z m374 -34 c-12 -19 -28 -27 -28 -14 0 6 30 33 38 34 1 0 -3 -9 -10
-20z m-63 -40 c-3 -5 -17 -10 -31 -10 -13 0 -24 5 -24 10 0 6 14 10 31 10 17
0 28 -4 24 -10z m-505 -18 c0 -12 -108 -14 -115 -2 -4 6 16 10 54 10 34 0 61
-4 61 -8z m155 -2 c-3 -5 -30 -10 -60 -10 -30 0 -57 5 -60 10 -4 6 18 10 60
10 42 0 64 -4 60 -10z m45 0 c0 -5 -7 -10 -15 -10 -8 0 -15 5 -15 10 0 6 7 10
15 10 8 0 15 -4 15 -10z m159 6 c-10 -9 -139 -14 -139 -6 0 6 32 10 72 10 39
0 69 -2 67 -4z m1331 -130 c0 -26 -6 -18 -14 19 -5 22 -4 26 4 15 5 -8 10 -24
10 -34z m-30 -1 c0 -9 -9 -15 -21 -15 -18 0 -19 2 -9 15 7 8 16 15 21 15 5 0
9 -7 9 -15z m62 -117 c-7 -7 -12 -8 -12 -2 0 14 12 26 19 19 2 -3 -1 -11 -7
-17z m-1932 8 c0 -11 -19 -15 -25 -6 -3 5 1 10 9 10 9 0 16 -2 16 -4z m50 -26
c0 -5 -7 -10 -16 -10 -8 0 -12 5 -9 10 3 6 10 10 16 10 5 0 9 -4 9 -10z m-380
-30 c0 -4 9 -17 20 -30 21 -24 26 -40 11 -40 -9 0 -61 71 -61 83 0 3 7 4 15 1
8 -4 15 -9 15 -14z m2266 7 c4 -4 -8 -7 -27 -7 -23 0 -30 3 -20 9 15 10 37 9
47 -2z m58 -16 c65 -126 339 -234 509 -202 86 17 195 40 237 51 19 4 60 11 90
15 45 6 53 5 42 -6 -19 -20 -105 -42 -270 -69 -35 -5 -68 -13 -73 -16 -16 -10
-212 -5 -223 6 -5 5 -19 10 -30 10 -29 0 -84 21 -129 48 -21 12 -41 22 -44 22
-12 0 -112 86 -113 96 0 6 -9 18 -21 25 -13 9 -18 20 -14 32 10 25 22 21 39
-12z m-1594 -26 c0 -8 -7 -15 -15 -15 -16 0 -20 12 -8 23 11 12 23 8 23 -8z
m2944 -50 c-10 -8 -30 -14 -44 -14 -24 0 -24 0 -6 14 11 8 31 15 45 15 24 0
24 -1 5 -15z m-1334 -35 c27 -27 25 -32 -5 -18 -14 6 -25 17 -25 25 0 18 7 16
30 -7z m920 -20 c0 -5 -6 -10 -14 -10 -8 0 -18 5 -21 10 -3 6 3 10 14 10 12 0
21 -4 21 -10z m130 -15 c0 -10 -66 -32 -114 -38 -27 -4 -54 -11 -60 -16 -18
-14 -84 -23 -90 -12 -4 5 14 13 39 17 25 3 48 10 50 15 3 4 32 11 65 15 33 4
60 11 60 15 0 5 11 9 25 9 14 0 25 -2 25 -5z m-1003 -11 c-3 -3 -12 -4 -19 -1
-8 3 -5 6 6 6 11 1 17 -2 13 -5z m-2267 -30 c0 -8 -7 -14 -15 -14 -15 0 -21
21 -9 33 10 9 24 -2 24 -19z m1460 15 c0 -5 -17 -17 -37 -25 -21 -8 -56 -23
-78 -33 -22 -10 -67 -26 -100 -36 -33 -10 -76 -24 -95 -31 -42 -17 -109 -21
-118 -8 -4 6 -32 16 -63 23 -106 23 -389 -7 -389 -41 0 -4 -7 -8 -15 -8 -17 0
-73 -52 -90 -84 -14 -24 -29 -22 -33 3 -2 12 5 25 17 33 12 7 21 17 21 22 0
13 51 66 64 66 5 0 17 7 27 16 10 9 34 16 53 17 20 1 36 4 36 7 0 3 19 6 43 6
23 0 96 3 162 6 66 3 158 2 205 -1 117 -9 230 8 310 47 71 35 80 37 80 21z
m868 -19 c32 -30 27 -34 -8 -8 -16 12 -30 23 -30 25 0 9 19 1 38 -17z m57 -38
c-3 -3 -11 0 -18 7 -9 10 -8 11 6 5 10 -3 15 -9 12 -12z m578 1 c-7 -2 -19 -2
-25 0 -7 3 -2 5 12 5 14 0 19 -2 13 -5z m-75 -20 c-10 -2 -28 -2 -40 0 -13 2
-5 4 17 4 22 1 32 -1 23 -4z m387 -13 c-3 -5 -17 -10 -31 -10 -13 0 -24 5 -24
10 0 6 14 10 31 10 17 0 28 -4 24 -10z m-65 -20 c0 -5 -9 -10 -19 -10 -11 0
-26 -3 -35 -6 -9 -3 -16 -1 -16 4 0 9 20 17 58 21 6 0 12 -3 12 -9z m-110 -30
c0 -5 -9 -10 -20 -10 -11 0 -20 5 -20 10 0 6 9 10 20 10 11 0 20 -4 20 -10z
m-2180 -15 c-14 -8 -32 -12 -41 -9 -9 2 -32 -2 -52 -11 -20 -8 -40 -15 -44
-15 -18 1 -33 18 -28 32 5 12 25 15 98 16 83 0 90 -1 67 -13z m700 -9 c0 -11
9 -12 45 -5 66 12 227 18 266 10 27 -6 15 -9 -61 -15 -52 -4 -122 -11 -155
-16 -82 -13 -480 -51 -645 -61 -331 -22 -340 -22 -340 -10 0 11 59 17 137 12
23 -1 48 1 55 5 16 10 18 11 143 24 55 6 125 15 155 20 30 5 122 14 204 20 82
6 156 15 165 20 22 13 31 12 31 -4z m2340 10 c0 -3 -4 -8 -10 -11 -5 -3 -10
-1 -10 4 0 6 5 11 10 11 6 0 10 -2 10 -4z m-937 -13 c-7 -2 -21 -2 -30 0 -10
3 -4 5 12 5 17 0 24 -2 18 -5z m-2318 -12 c19 -8 19 -8 -2 -19 -31 -17 -43
-15 -43 8 0 21 12 24 45 11z m-75 -46 c-16 -30 -60 -35 -60 -7 0 12 3 13 8 4
6 -9 14 -5 31 14 27 31 40 24 21 -11z m3187 19 c-3 -3 -12 -4 -19 -1 -8 3 -5
6 6 6 11 1 17 -2 13 -5z m-980 -10 c-3 -3 -12 -4 -19 -1 -8 3 -5 6 6 6 11 1
17 -2 13 -5z m-2297 -59 c0 -16 -27 -32 -37 -22 -3 4 -3 13 0 22 8 20 37 20
37 0z m2008 -182 c38 -40 75 -73 81 -73 6 0 11 -7 11 -15 0 -14 -36 -21 -77
-16 -6 1 -14 -3 -18 -9 -8 -13 -45 -13 -45 0 0 11 -69 32 -82 24 -12 -7 -71 6
-63 14 4 4 34 7 67 8 40 1 63 6 69 15 12 19 11 59 -1 59 -5 0 -17 16 -25 36
-9 21 -20 34 -27 31 -9 -3 -14 10 -15 42 l-2 46 29 -45 c15 -25 60 -78 98
-117z m-1920 16 c41 -77 62 -108 93 -140 34 -35 96 -74 132 -83 33 -8 37 -36
5 -36 -27 0 -110 47 -154 87 -54 49 -144 211 -144 259 0 22 26 -11 68 -87z
m1528 76 c16 -14 25 -25 19 -25 -18 1 -69 50 -52 50 2 0 17 -11 33 -25z
m-1182 -30 c3 -8 1 -15 -4 -15 -6 0 -10 7 -10 15 0 8 2 15 4 15 2 0 6 -7 10
-15z m198 -125 c32 -62 35 -80 13 -80 -8 0 -15 5 -15 12 0 7 -7 5 -17 -4 -10
-9 -37 -19 -61 -23 -35 -6 -41 -4 -36 8 3 9 13 13 24 10 14 -4 21 2 25 20 5
18 -1 32 -24 58 l-31 33 -39 -22 c-47 -27 -51 -27 -51 -4 0 21 50 42 98 42 26
0 34 -6 48 -35 19 -40 34 -54 34 -31 0 9 -4 16 -9 16 -11 0 -22 40 -15 52 11
17 28 1 56 -52z m1098 40 c0 -11 -2 -20 -5 -20 -2 0 -9 9 -15 20 -9 16 -8 20
5 20 8 0 15 -9 15 -20z m-1377 -32 c-18 -6 -33 -17 -35 -25 -2 -11 -9 -8 -27
11 l-24 26 59 -1 c55 -1 57 -2 27 -11z m1412 -18 c0 -8 -8 -16 -17 -18 -13 -2
-18 3 -18 18 0 15 5 20 18 18 9 -2 17 -10 17 -18z m35 -6 c0 -8 -5 -12 -10 -9
-6 4 -8 11 -5 16 9 14 15 11 15 -7z m-1410 -44 c0 -5 -4 -10 -9 -10 -6 0 -13
5 -16 10 -3 6 1 10 9 10 9 0 16 -4 16 -10z m90 -10 c0 -15 -7 -20 -25 -20 -14
0 -25 4 -25 8 0 7 30 27 48 31 1 1 2 -8 2 -19z m220 -62 c0 -4 -9 -8 -20 -8
-15 0 -20 7 -20 27 0 25 0 26 20 8 11 -10 20 -22 20 -27z m-94 -32 c1 -1 5
-16 9 -33 5 -28 4 -33 -12 -33 -10 0 -31 -9 -48 -20 -16 -11 -38 -20 -47 -20
-25 0 -48 28 -48 60 0 40 39 61 100 53 25 -3 46 -6 46 -7z m74 -27 c0 -20 -15
-26 -25 -9 -9 15 3 43 15 35 5 -3 10 -15 10 -26z"/>
<path d="M9280 2761 c0 -5 6 -14 14 -20 16 -13 32 2 21 19 -8 12 -35 13 -35 1z"/>
<path d="M12196 4840 c-25 -27 -46 -56 -46 -65 0 -22 10 -19 42 12 23 22 28
24 28 9 0 -17 -28 -61 -65 -103 -49 -54 -48 -51 -24 -93 26 -46 35 -48 84 -20
19 11 42 17 50 14 22 -9 18 -24 -6 -24 -12 0 -32 -11 -45 -25 l-23 -25 27 6
c15 3 37 11 50 17 19 9 25 7 37 -10 12 -17 20 -20 47 -13 18 4 51 17 73 29 21
12 45 21 51 21 20 0 29 61 11 72 -9 5 -14 15 -10 23 3 9 1 21 -5 28 -5 6 -13
22 -16 34 -13 43 -61 80 -112 87 -27 3 -53 11 -58 16 -6 6 -16 4 -27 -6 -28
-25 -40 -9 -23 31 8 19 13 35 11 35 -3 0 -25 -22 -51 -50z m124 -235 c0 -8 -2
-15 -4 -15 -2 0 -6 7 -10 15 -3 8 -1 15 4 15 6 0 10 -7 10 -15z"/>
<path d="M3365 4849 c-4 -6 -5 -12 -2 -15 2 -3 7 2 10 11 7 17 1 20 -8 4z"/>
<path d="M14675 4745 c-22 -8 -57 -14 -77 -14 -20 -1 -40 -6 -43 -11 -5 -8
-11 -8 -20 0 -9 8 -15 8 -20 0 -3 -5 -38 -10 -77 -10 -40 0 -97 -4 -127 -10
-31 -5 -123 -16 -206 -25 -82 -8 -172 -20 -200 -26 -27 -6 -104 -14 -170 -19
-234 -15 -275 -19 -294 -30 -11 -5 -61 -10 -111 -10 -77 0 -97 -3 -121 -21
-24 -17 -44 -21 -106 -21 -42 1 -96 -6 -120 -14 -24 -8 -67 -15 -96 -15 -29 0
-65 -1 -82 -3 -16 -2 -42 -4 -57 -5 -15 0 -34 -8 -42 -16 -12 -13 -20 -14 -37
-5 -16 9 -24 9 -33 0 -8 -9 -8 -14 1 -17 7 -2 9 -11 6 -19 -11 -31 -48 44 -68
139 -8 39 -23 33 -45 -17 -10 -25 -56 -86 -102 -136 -153 -168 -190 -215 -219
-277 -31 -65 -36 -93 -18 -93 15 0 114 82 233 192 33 32 64 58 69 58 10 0 9
-28 -2 -32 -5 -1 -33 -25 -63 -53 -86 -79 -173 -154 -216 -185 -35 -25 -41
-35 -47 -79 -4 -27 -4 -55 0 -61 10 -15 147 87 263 195 56 53 72 63 72 47 0
-27 -293 -272 -325 -272 -12 0 -15 -12 -15 -54 0 -52 2 -56 41 -85 l42 -30 25
19 c26 21 62 27 62 11 0 -5 -6 -12 -12 -14 -10 -4 -10 -6 -1 -6 16 -1 108 110
134 162 12 23 43 63 70 89 27 26 49 53 49 60 0 8 -9 31 -19 52 -20 38 -20 38
1 82 25 51 20 62 -16 39 l-26 -17 0 41 c0 36 2 41 23 38 20 -2 22 2 22 41 0
49 -12 64 -30 39 -18 -25 -26 -20 -19 11 8 35 50 80 63 67 5 -6 12 -49 14 -97
6 -98 10 -108 39 -108 19 0 20 4 14 53 l-7 54 93 7 c79 5 269 25 813 86 163
18 368 40 475 50 119 12 508 53 678 72 l112 12 0 103 0 103 -42 -1 c-24 -1
-61 -7 -83 -14z m-2038 -387 c-3 -7 -5 -2 -5 12 0 14 2 19 5 13 2 -7 2 -19 0
-25z"/>
<path d="M3770 4600 c0 -13 5 -18 15 -14 8 4 15 12 15 20 0 8 -7 14 -15 14 -8
0 -15 -9 -15 -20z"/>
<path d="M5627 4548 c-3 -12 -4 -25 -2 -29 12 -18 113 -20 237 -5 73 9 153 18
178 20 25 2 -36 2 -135 0 -166 -4 -184 -3 -222 16 -52 25 -49 25 -56 -2z"/>
<path d="M12376 4469 c-16 -16 -25 -29 -19 -29 12 0 53 38 53 50 0 13 -1 13
-34 -21z"/>
<path d="M7147 4439 c7 -7 15 -10 18 -7 3 3 -2 9 -12 12 -14 6 -15 5 -6 -5z"/>
<path d="M12255 4420 c3 -5 22 -10 41 -10 19 0 34 5 34 10 0 6 -18 10 -41 10
-24 0 -38 -4 -34 -10z"/>
<path d="M3144 4405 c3 -9 -1 -18 -9 -21 -8 -4 -15 -10 -15 -15 0 -14 28 -11
33 4 3 9 12 8 38 -4 19 -9 54 -23 79 -30 25 -7 56 -19 69 -26 14 -6 28 -10 33
-7 5 3 43 -2 85 -11 61 -14 107 -16 242 -11 91 3 168 5 170 6 3 0 1 4 -5 9 -5
5 -67 12 -139 15 -289 13 -330 18 -410 43 -44 13 -95 33 -113 44 -41 23 -66
25 -58 4z"/>
<path d="M4724 4371 c7 -11 76 -20 76 -10 0 8 -36 19 -63 19 -10 0 -16 -4 -13
-9z"/>
<path d="M4743 4303 c-4 -16 -6 -34 -5 -40 2 -7 -2 -13 -8 -13 -5 0 -10 7 -10
15 0 9 -6 12 -15 9 -8 -4 -15 -10 -15 -15 0 -5 7 -9 15 -9 8 0 15 -4 15 -9 0
-22 51 17 61 47 6 19 15 29 21 26 7 -4 8 -2 4 4 -4 7 -18 12 -31 12 -18 0 -26
-7 -32 -27z"/>
<path d="M9488 4323 c7 -3 16 -2 19 1 4 3 -2 6 -13 5 -11 0 -14 -3 -6 -6z"/>
<path d="M2955 4260 c-3 -5 -1 -10 4 -10 6 0 11 5 11 10 0 6 -2 10 -4 10 -3 0
-8 -4 -11 -10z"/>
<path d="M3885 4254 c-4 -10 -11 -27 -16 -36 -5 -10 -8 -71 -8 -135 l2 -118 9
80 c5 44 15 109 24 144 9 43 11 68 5 74 -7 7 -12 4 -16 -9z"/>
<path d="M4403 4219 c-24 -16 -43 -34 -43 -39 0 -5 -13 -23 -29 -41 -17 -18
-35 -45 -42 -61 -6 -15 -15 -28 -20 -28 -5 0 -9 -7 -9 -15 0 -8 -4 -15 -10
-15 -5 0 -10 -7 -10 -16 0 -10 16 4 37 32 62 81 66 86 117 136 46 46 51 49 87
43 30 -5 39 -3 39 7 0 8 -8 14 -17 15 -10 1 -27 4 -38 7 -13 4 -35 -5 -62 -25z"/>
<path d="M3120 4219 c0 -4 -17 -10 -37 -13 -21 -3 -49 -9 -63 -12 -14 -3 -36
-7 -50 -8 -14 -1 -37 -10 -52 -20 -18 -12 -37 -16 -52 -12 -38 9 -58 -2 -45
-25 5 -11 8 -23 5 -27 -3 -4 -1 -14 5 -22 7 -12 9 -10 9 8 0 31 25 38 54 14
25 -19 25 -19 6 -40 -22 -23 -26 -42 -10 -42 6 0 10 6 10 13 0 14 68 43 78 33
3 -4 -3 -9 -15 -12 -44 -12 -32 -93 19 -128 24 -17 181 -23 205 -8 21 14 27
80 8 108 -19 30 -10 48 10 20 16 -21 45 -15 45 10 0 13 3 14 15 4 13 -10 15
-9 15 9 0 14 6 21 20 21 27 0 25 22 -5 48 -28 24 -24 47 8 56 18 4 19 8 9 18
-14 13 -192 19 -192 7z m40 -224 c19 -7 35 -18 35 -26 0 -11 -22 -15 -96 -17
-83 -2 -97 0 -113 16 -15 17 -15 21 -3 34 17 17 120 13 177 -7z"/>
<path d="M4535 4185 c-15 -43 -38 -90 -49 -97 -8 -5 -7 -11 1 -19 7 -7 14 -11
15 -8 32 52 56 115 48 128 -8 14 -9 14 -15 -4z"/>
<path d="M4790 4189 c0 -5 5 -7 10 -4 6 3 10 8 10 11 0 2 -4 4 -10 4 -5 0 -10
-5 -10 -11z"/>
<path d="M3341 4176 c-10 -12 -6 -26 10 -26 11 0 19 29 10 35 -5 2 -14 -1 -20
-9z"/>
<path d="M4880 4150 c0 -5 5 -10 10 -10 6 0 10 5 10 10 0 6 -4 10 -10 10 -5 0
-10 -4 -10 -10z"/>
<path d="M5666 4135 c-11 -8 -32 -15 -48 -15 -21 0 -35 -10 -58 -41 -29 -41
-29 -42 -13 -70 25 -42 48 -45 95 -14 l41 27 17 -22 c15 -19 18 -20 30 -6 11
14 10 19 -3 34 -13 14 -15 30 -10 70 5 47 4 52 -13 52 -10 0 -28 -7 -38 -15z"/>
<path d="M3972 4071 c3 -12 21 -17 80 -21 68 -4 80 -8 107 -34 25 -24 31 -27
37 -13 7 20 -24 65 -51 72 -11 3 -55 7 -98 8 -66 3 -77 1 -75 -12z"/>
<path d="M4448 3999 c-16 -34 -28 -67 -28 -74 0 -7 -7 -18 -15 -25 -9 -7 -13
-15 -11 -18 9 -8 32 22 44 57 7 19 19 42 28 52 8 9 14 29 12 43 -3 22 -7 16
-30 -35z"/>
<path d="M4186 3975 c-32 -17 -160 -20 -200 -5 -33 12 -33 0 -1 -29 24 -20 35
-21 122 -19 l97 3 13 33 c15 36 10 38 -31 17z"/>
<path d="M2556 3811 c-7 -10 12 -72 27 -86 6 -7 8 3 3 30 -3 22 -6 46 -6 53 0
14 -16 16 -24 3z"/>
<path d="M11390 3671 c0 -5 9 -7 20 -4 11 3 20 7 20 9 0 2 -9 4 -20 4 -11 0
-20 -4 -20 -9z"/>
<path d="M11220 3613 c-31 -10 -100 -43 -100 -47 0 -8 41 3 87 21 51 21 62 43
13 26z"/>
<path d="M10658 3503 c7 -3 16 -2 19 1 4 3 -2 6 -13 5 -11 0 -14 -3 -6 -6z"/>
<path d="M10568 3478 c8 -8 17 -8 34 0 22 10 21 11 -11 11 -27 1 -32 -2 -23
-11z"/>
<path d="M10368 3403 c6 -2 18 -2 25 0 6 3 1 5 -13 5 -14 0 -19 -2 -12 -5z"/>
<path d="M2094 3260 c-12 -4 -95 -11 -185 -14 -172 -6 -264 -13 -289 -23 -21
-8 -68 -12 -190 -18 -144 -7 -229 -13 -415 -31 -88 -9 -239 -17 -335 -20 -96
-2 -188 -7 -205 -11 -16 -3 -60 -6 -97 -7 -36 -1 -64 -4 -61 -8 2 -5 -22 -8
-54 -8 -32 0 -104 -5 -160 -12 -88 -10 -103 -14 -103 -29 0 -20 -17 -20 320 1
175 11 470 29 605 36 102 5 348 19 605 34 362 22 728 53 875 75 55 9 113 15
128 15 19 0 27 4 25 13 -5 14 -137 20 -154 6 -23 -18 -101 -22 -133 -6 -26 13
-31 13 -31 1 0 -10 -12 -14 -42 -13 -24 1 -35 3 -25 6 9 2 17 9 17 14 0 11
-67 11 -96 -1z"/>
<path d="M2561 2744 c0 -11 3 -14 6 -6 3 7 2 16 -1 19 -3 4 -6 -2 -5 -13z"/>
<path d="M2596 2701 c-4 -6 -3 -18 2 -27 6 -11 11 -13 16 -5 4 6 3 18 -2 27
-6 11 -11 13 -16 5z"/>
<path d="M7445 2540 c-3 -5 1 -10 10 -10 9 0 13 5 10 10 -3 6 -8 10 -10 10 -2
0 -7 -4 -10 -10z"/>
<path d="M8030 2420 c0 -5 5 -10 10 -10 6 0 10 5 10 10 0 6 -4 10 -10 10 -5 0
-10 -4 -10 -10z"/>
<path d="M7935 2411 c-18 -7 -17 -8 7 -14 33 -9 66 2 46 14 -16 10 -26 10 -53
0z"/>
</g>
</svg>
